<svg width="522" height="300" viewBox="0 0 522 300" fill="none" xmlns="http://www.w3.org/2000/svg">
<rect x="1" width="520" height="300" rx="12" fill="#F4F5FF"/>
<path d="M481 230H521" stroke="#4D5BFF" stroke-linecap="round" stroke-linejoin="round" stroke-dasharray="2 4"/>
<rect x="21" y="20" width="20" height="20" fill="white" stroke="#525466"/>
<rect x="21" y="180" width="20" height="20" fill="white" stroke="#525466"/>
<rect x="21" y="200" width="20" height="20" fill="white" stroke="#4B5CFF"/>
<rect x="81" y="200" width="20" height="20" fill="white" stroke="#525466"/>
<rect x="101" y="200" width="20" height="20" fill="white" stroke="#4B5CFF"/>
<rect x="121" y="20" width="20" height="20" fill="white" stroke="#525466"/>
<path d="M321 270.5H361" stroke="#4D5BFF" stroke-linecap="round" stroke-linejoin="round" stroke-dasharray="2 4"/>
<rect x="231" y="40" width="20" height="20" fill="#4B5CFF" stroke="#525466"/>
<rect x="141" y="260" width="20" height="20" fill="white" stroke="#525466"/>
<path d="M141 270H1" stroke="#4B5CFF" stroke-linecap="round" stroke-linejoin="round" stroke-dasharray="2 4"/>
<rect x="161" y="130" width="20" height="20" fill="white" stroke="#525466"/>
<rect x="481" y="200" width="20" height="20" fill="white" stroke="#525466"/>
<rect x="361" y="100" width="20" height="20" fill="white" stroke="#4B5CFF"/>
<path d="M361 110H315.5" stroke="#4D5BFF" stroke-linecap="round" stroke-linejoin="round" stroke-dasharray="2 4"/>
<path d="M331 19.5V0.5" stroke="#4D5BFF" stroke-linecap="round" stroke-linejoin="round" stroke-dasharray="2 4"/>
<path d="M430.5 80V179.5" stroke="#4D5BFF" stroke-linecap="round" stroke-linejoin="round" stroke-dasharray="2 4"/>
<rect x="101" y="100" width="20" height="20" fill="#4B5CFF" stroke="#525466"/>
<rect x="421" y="40" width="20" height="20" fill="white" stroke="#525466"/>
<rect x="301" y="260" width="20" height="20" fill="white" stroke="#525466"/>
<rect x="281" y="260" width="20" height="20" fill="#4B5CFF" stroke="#525466"/>
<rect x="321" y="20" width="20" height="20" fill="white" stroke="#525466"/>
<rect x="461" y="220" width="20" height="20" fill="white" stroke="#4B5CFF"/>
<rect x="481" y="80" width="20" height="20" fill="white" stroke="#525466"/>
<rect x="421" y="60" width="20" height="20" fill="white" stroke="#4B5CFF"/>
<rect x="401" y="180" width="20" height="20" fill="white" stroke="#525466"/>
<rect x="421" y="180" width="20" height="20" fill="white" stroke="#4B5CFF"/>
<rect x="361" y="220" width="20" height="20" fill="white" stroke="#525466"/>
<rect x="361" y="240" width="20" height="20" fill="white" stroke="#525466"/>
<rect x="361" y="260" width="20" height="20" fill="white" stroke="#4B5CFF"/>
<rect x="421" y="20" width="20" height="20" fill="white" stroke="#525466"/>
<rect x="21" y="40" width="20" height="20" fill="white" stroke="#525466"/>
<rect x="41" y="40" width="20" height="20" fill="white" stroke="#525466"/>
<rect x="61" y="40" width="20" height="20" fill="white" stroke="#4B5CFF"/>
<rect x="81" y="220" width="20" height="20" fill="white" stroke="#525466"/>
<path d="M81 50.5H230.5" stroke="#4D5BFF" stroke-linecap="round" stroke-linejoin="round" stroke-dasharray="2 4"/>
<rect x="206.5" y="86.5" width="109" height="127" rx="11.5" fill="white" stroke="#4050FF"/>
<path d="M206.5 98C206.5 91.6487 211.649 86.5 218 86.5H304C310.351 86.5 315.5 91.6487 315.5 98V109.5H206.5V98Z" fill="white" stroke="#4050FF"/>
<circle cx="219" cy="98" r="3" fill="#4B5CFF"/>
<circle cx="230" cy="98" r="3" fill="white" stroke="#4B5CFF"/>
<circle cx="241" cy="98" r="3" fill="white" stroke="#4B5CFF"/>
<path d="M271 126L251 182" stroke="black" stroke-width="2" stroke-linecap="round" stroke-linejoin="round"/>
<path d="M243 136L225 154L243 172M279 136L297 154L279 172" stroke="black" stroke-width="2" stroke-linecap="round" stroke-linejoin="round"/>
<path d="M291 260V214" stroke="#4B5CFF" stroke-linecap="round" stroke-linejoin="round" stroke-dasharray="2 4"/>
<path d="M110.5 120.5V199.5" stroke="#4D5BFF" stroke-linecap="round" stroke-linejoin="round" stroke-dasharray="2 4"/>
<path d="M241.5 85.5V60.5" stroke="#4B5CFF" stroke-linecap="round" stroke-linejoin="round" stroke-dasharray="2 4"/>
<path d="M80.5 210H41" stroke="#4D5BFF" stroke-linecap="round" stroke-linejoin="round" stroke-dasharray="2 4"/>
<circle cx="315.5" cy="110.5" r="4.5" fill="white" stroke="#4B5CFF"/>
<circle cx="291.5" cy="213.5" r="4.5" fill="white" stroke="#4B5CFF"/>
<circle cx="241.5" cy="86.5" r="4.5" fill="white" stroke="#4B5CFF"/>
</svg>
