<svg width="520" height="300" viewBox="0 0 520 300" fill="none" xmlns="http://www.w3.org/2000/svg">
<g clip-path="url(#clip0_192_698)">
<rect width="520" height="300" rx="12" fill="#F9F2FF"/>
<path d="M97 92.5L262.5 156M262.5 156L155.5 217.5M262.5 156L370 57M262.5 156L393 217.5M262.5 156L40.5 128.5" stroke="#A134FF" stroke-dasharray="2 4"/>
<rect x="190" y="136" width="1" height="40" fill="#A134FF"/>
<rect x="329" y="136" width="1" height="40" fill="#A134FF"/>
<path d="M329.5 176C329.5 178.508 327.717 181.008 324.219 183.371C320.739 185.722 315.669 187.859 309.36 189.661C296.749 193.265 279.297 195.5 260 195.5C240.703 195.5 223.251 193.265 210.64 189.661C204.331 187.859 199.261 185.722 195.781 183.371C192.283 181.008 190.5 178.508 190.5 176C190.5 173.492 192.283 170.992 195.781 168.629C199.261 166.278 204.331 164.141 210.64 162.339C223.251 158.735 240.703 156.5 260 156.5C279.297 156.5 296.749 158.735 309.36 162.339C315.669 164.141 320.739 166.278 324.219 168.629C327.717 170.992 329.5 173.492 329.5 176Z" fill="white" stroke="#A134FF"/>
<rect x="191" y="136" width="138" height="40" fill="white"/>
<path d="M329.5 136C329.5 138.508 327.717 141.008 324.219 143.371C320.739 145.722 315.669 147.859 309.36 149.661C296.749 153.265 279.297 155.5 260 155.5C240.703 155.5 223.251 153.265 210.64 149.661C204.331 147.859 199.261 145.722 195.781 143.371C192.283 141.008 190.5 138.508 190.5 136C190.5 133.492 192.283 130.992 195.781 128.629C199.261 126.278 204.331 124.141 210.64 122.339C223.251 118.735 240.703 116.5 260 116.5C279.297 116.5 296.749 118.735 309.36 122.339C315.669 124.141 320.739 126.278 324.219 128.629C327.717 130.992 329.5 133.492 329.5 136Z" fill="white" stroke="#A134FF"/>
<path d="M321.5 136C321.5 137.777 319.996 139.622 316.879 141.405C313.801 143.166 309.313 144.768 303.723 146.121C292.552 148.823 277.093 150.5 260 150.5C242.907 150.5 227.448 148.823 216.277 146.121C210.687 144.768 206.199 143.166 203.121 141.405C200.004 139.622 198.5 137.777 198.5 136C198.5 134.223 200.004 132.378 203.121 130.595C206.199 128.834 210.687 127.232 216.277 125.879C227.448 123.177 242.907 121.5 260 121.5C277.093 121.5 292.552 123.177 303.723 125.879C309.313 127.232 313.801 128.834 316.879 130.595C319.996 132.378 321.5 134.223 321.5 136Z" fill="white" stroke="#A134FF"/>
<path d="M148.341 68.3095C149.198 69.4986 149.737 70.729 149.925 71.9903L149.43 72.064C149.477 72.3743 149.5 72.6863 149.5 73C149.5 73.3137 149.477 73.6257 149.43 73.936L149.925 74.0097C149.737 75.271 149.198 76.5014 148.341 77.6905L147.935 77.3981C147.575 77.8972 147.155 78.3919 146.674 78.8809L147.031 79.2313C146.162 80.1152 145.114 80.9718 143.9 81.7966L143.619 81.383C143.091 81.7416 142.531 82.0947 141.938 82.4419L142.191 82.8733C141.093 83.5166 139.892 84.1377 138.594 84.734L138.385 84.2796C137.792 84.5519 137.178 84.8192 136.545 85.0812L136.736 85.5433C135.54 86.0378 134.274 86.513 132.945 86.9672L132.783 86.494C132.16 86.7068 131.523 86.915 130.872 87.1185L131.021 87.5957C129.772 87.9858 128.474 88.3582 127.128 88.7119L127.001 88.2283C126.36 88.3969 125.708 88.5612 125.046 88.7212L125.163 89.2072C123.881 89.517 122.56 89.8103 121.203 90.0861L121.103 89.5961C120.453 89.7283 119.795 89.8565 119.129 89.9806L119.22 90.4721C117.919 90.7145 116.587 90.9412 115.228 91.1515L115.151 90.6574C114.491 90.7595 113.824 90.8578 113.15 90.9521L113.219 91.4473C111.905 91.6314 110.567 91.8003 109.207 91.9533L109.151 91.4565C108.486 91.5313 107.816 91.6023 107.141 91.6695L107.191 92.167C105.865 92.299 104.52 92.416 103.157 92.5177L103.12 92.019C102.452 92.0688 101.78 92.1149 101.105 92.1572L101.136 92.6562C99.8026 92.7396 98.4536 92.8083 97.0907 92.8618L97.0711 92.3622C96.4017 92.3885 95.7288 92.411 95.0528 92.4299L95.0667 92.9297C93.7287 92.967 92.3782 92.9896 91.0167 92.9972L91.014 92.4972C90.6766 92.4991 90.3386 92.5 90 92.5C89.6614 92.5 89.3234 92.4991 88.986 92.4972L88.9833 92.9972C87.6218 92.9896 86.2713 92.967 84.9333 92.9297L84.9472 92.4299C84.2712 92.411 83.5983 92.3885 82.9289 92.3622L82.9093 92.8618C81.5464 92.8083 80.1974 92.7396 78.864 92.6562L78.8953 92.1572C78.2195 92.1149 77.5478 92.0688 76.8803 92.019L76.8431 92.5177C75.4804 92.416 74.1353 92.299 72.8093 92.167L72.8588 91.6695C72.1839 91.6023 71.5139 91.5313 70.8492 91.4565L70.7933 91.9533C69.4332 91.8003 68.095 91.6314 66.7806 91.4473L66.8499 90.9521C66.1764 90.8578 65.5092 90.7595 64.8486 90.6574L64.7722 91.1515C63.413 90.9412 62.0815 90.7145 60.7798 90.4721L60.8713 89.9806C60.205 89.8565 59.5467 89.7283 58.8966 89.5961L58.7969 90.0861C57.4405 89.8103 56.1195 89.517 54.8366 89.2072L54.954 88.7212C54.2918 88.5612 53.6398 88.3969 52.9987 88.2283L52.8715 88.7119C51.5264 88.3582 50.2278 87.9858 48.9792 87.5957L49.1283 87.1185C48.477 86.915 47.8397 86.7068 47.2167 86.494L47.0551 86.9672C45.7255 86.513 44.4602 86.0378 43.2641 85.5433L43.4552 85.0812C42.8215 84.8192 42.2079 84.5519 41.6151 84.2796L41.4064 84.734C40.1083 84.1377 38.9066 83.5166 37.8088 82.8733L38.0616 82.4419C37.4693 82.0947 36.9088 81.7416 36.3811 81.383L36.1001 81.7966C34.8864 80.9718 33.838 80.1152 32.9695 79.2313L33.3261 78.8809C32.8455 78.3918 32.4246 77.8972 32.0648 77.3981L31.6592 77.6905C30.8019 76.5014 30.2633 75.271 30.0751 74.0097L30.5697 73.936C30.5234 73.6257 30.5 73.3137 30.5 73C30.5 72.6863 30.5234 72.3743 30.5697 72.064L30.0751 71.9903C30.2633 70.729 30.8019 69.4986 31.6592 68.3095L32.0648 68.6019C32.4247 68.1028 32.8455 67.6081 33.3261 67.1191L32.9695 66.7687C33.838 65.8848 34.8864 65.0282 36.1001 64.2034L36.3811 64.617C36.9088 64.2584 37.4693 63.9053 38.0617 63.5581L37.8088 63.1267C38.9066 62.4834 40.1083 61.8623 41.4064 61.266L41.6151 61.7204C42.2079 61.4481 42.8215 61.1808 43.4552 60.9188L43.2641 60.4567C44.4602 59.9622 45.7255 59.487 47.0551 59.0328L47.2167 59.506C47.8397 59.2932 48.477 59.085 49.1283 58.8815L48.9792 58.4043C50.2278 58.0142 51.5264 57.6418 52.8716 57.2881L52.9987 57.7717C53.6399 57.6031 54.2918 57.4388 54.954 57.2788L54.8367 56.7928C56.1195 56.483 57.4405 56.1897 58.7969 55.9139L58.8966 56.4039C59.5467 56.2717 60.205 56.1435 60.8713 56.0194L60.7798 55.5279C62.0815 55.2855 63.413 55.0588 64.7722 54.8485L64.8486 55.3426C65.5092 55.2405 66.1764 55.1422 66.8499 55.0479L66.7806 54.5527C68.095 54.3686 69.4332 54.1997 70.7933 54.0467L70.8492 54.5435C71.5139 54.4687 72.1839 54.3977 72.8588 54.3305L72.8093 53.833C74.1353 53.701 75.4804 53.584 76.8431 53.4823L76.8803 53.981C77.5478 53.9312 78.2195 53.8851 78.8952 53.8428L78.864 53.3438C80.1974 53.2604 81.5464 53.1917 82.9093 53.1382L82.9289 53.6378C83.5983 53.6115 84.2712 53.589 84.9472 53.5701L84.9333 53.0703C86.2713 53.033 87.6218 53.0104 88.9833 53.0028L88.986 53.5028C89.3234 53.5009 89.6614 53.5 90 53.5C90.3386 53.5 90.6766 53.5009 91.014 53.5028L91.0167 53.0028C92.3782 53.0104 93.7287 53.033 95.0667 53.0703L95.0528 53.5701C95.7288 53.589 96.4017 53.6115 97.0711 53.6378L97.0907 53.1382C98.4536 53.1917 99.8026 53.2604 101.136 53.3438L101.105 53.8428C101.78 53.8851 102.452 53.9312 103.12 53.981L103.157 53.4823C104.52 53.584 105.865 53.701 107.191 53.833L107.141 54.3305C107.816 54.3977 108.486 54.4687 109.151 54.5435L109.207 54.0467C110.567 54.1997 111.905 54.3686 113.219 54.5527L113.15 55.0479C113.824 55.1422 114.491 55.2405 115.151 55.3426L115.228 54.8485C116.587 55.0588 117.919 55.2855 119.22 55.5279L119.129 56.0194C119.795 56.1435 120.453 56.2717 121.103 56.4039L121.203 55.9139C122.56 56.1897 123.881 56.483 125.163 56.7928L125.046 57.2788C125.708 57.4388 126.36 57.6031 127.001 57.7717L127.128 57.2881C128.474 57.6418 129.772 58.0142 131.021 58.4043L130.872 58.8815C131.523 59.085 132.16 59.2932 132.783 59.506L132.945 59.0328C134.274 59.487 135.54 59.9622 136.736 60.4567L136.545 60.9188C137.178 61.1808 137.792 61.4481 138.385 61.7204L138.594 61.266C139.892 61.8623 141.093 62.4834 142.191 63.1267L141.938 63.5581C142.531 63.9053 143.091 64.2584 143.619 64.617L143.9 64.2034C145.114 65.0282 146.162 65.8848 147.031 66.7687L146.674 67.1191C147.155 67.6082 147.575 68.1028 147.935 68.6019L148.341 68.3095Z" stroke="#A134FF" stroke-dasharray="2 4"/>
<path d="M409.841 40.8968C410.929 41.8943 411.632 42.9535 411.89 44.0545L411.403 44.1683C411.467 44.4439 411.5 44.721 411.5 45C411.5 45.279 411.467 45.5561 411.403 45.8317L411.89 45.9455C411.632 47.0465 410.929 48.1057 409.841 49.1032L409.503 48.7345C409.084 49.118 408.602 49.4953 408.059 49.8644L408.34 50.278C407.388 50.9246 406.267 51.5385 404.996 52.1133L404.79 51.6577C404.241 51.9058 403.663 52.147 403.057 52.3805L403.237 52.8471C402.117 53.2785 400.907 53.6831 399.616 54.0574L399.477 53.5772C398.884 53.749 398.274 53.9145 397.648 54.0733L397.77 54.5579C396.584 54.8586 395.34 55.1354 394.045 55.3859L393.95 54.895C393.339 55.0133 392.716 55.1256 392.083 55.232L392.165 55.7251C390.943 55.9303 389.68 56.1129 388.382 56.2714L388.321 55.7751C387.701 55.8508 387.072 55.921 386.436 55.9855L386.486 56.483C385.245 56.6087 383.975 56.7128 382.682 56.7937L382.65 56.2947C382.024 56.3339 381.391 56.3677 380.753 56.3959L380.775 56.8954C379.522 56.9507 378.248 56.9846 376.958 56.9958L376.953 56.4959C376.636 56.4986 376.319 56.5 376 56.5C375.681 56.5 375.364 56.4986 375.047 56.4959L375.042 56.9958C373.752 56.9846 372.478 56.9507 371.225 56.8954L371.247 56.3959C370.609 56.3677 369.976 56.3339 369.35 56.2947L369.318 56.7937C368.025 56.7128 366.755 56.6087 365.514 56.483L365.564 55.9855C364.928 55.921 364.299 55.8508 363.679 55.7751L363.618 56.2714C362.32 56.1129 361.057 55.9303 359.835 55.7251L359.917 55.232C359.284 55.1256 358.661 55.0133 358.05 54.895L357.955 55.3859C356.66 55.1354 355.416 54.8586 354.23 54.5579L354.352 54.0733C353.726 53.9145 353.116 53.749 352.523 53.5772L352.384 54.0574C351.093 53.6831 349.883 53.2785 348.763 52.8471L348.943 52.3805C348.337 52.147 347.759 51.9058 347.21 51.6577L347.004 52.1133C345.733 51.5385 344.612 50.9246 343.66 50.278L343.941 49.8644C343.398 49.4953 342.916 49.118 342.497 48.7345L342.159 49.1032C341.071 48.1057 340.368 47.0465 340.11 45.9455L340.597 45.8317C340.533 45.5561 340.5 45.279 340.5 45C340.5 44.721 340.533 44.4439 340.597 44.1683L340.11 44.0545C340.368 42.9535 341.071 41.8943 342.159 40.8968L342.497 41.2655C342.916 40.882 343.398 40.5047 343.941 40.1356L343.66 39.722C344.612 39.0754 345.733 38.4615 347.004 37.8867L347.21 38.3423C347.759 38.0942 348.337 37.853 348.943 37.6195L348.763 37.1529C349.883 36.7215 351.093 36.3169 352.384 35.9426L352.523 36.4228C353.116 36.251 353.726 36.0855 354.352 35.9267L354.23 35.4421C355.416 35.1414 356.66 34.8646 357.955 34.6141L358.05 35.105C358.661 34.9867 359.284 34.8744 359.917 34.768L359.835 34.2749C361.057 34.0697 362.32 33.8871 363.618 33.7286L363.679 34.2249C364.299 34.1492 364.928 34.079 365.564 34.0145L365.514 33.517C366.755 33.3913 368.025 33.2872 369.318 33.2063L369.35 33.7053C369.976 33.6661 370.609 33.6323 371.247 33.6041L371.225 33.1046C372.478 33.0493 373.752 33.0154 375.042 33.0042L375.047 33.5041C375.364 33.5014 375.681 33.5 376 33.5C376.319 33.5 376.636 33.5014 376.953 33.5041L376.958 33.0042C378.248 33.0154 379.522 33.0493 380.775 33.1046L380.753 33.6041C381.391 33.6323 382.024 33.6661 382.65 33.7053L382.682 33.2063C383.975 33.2872 385.245 33.3913 386.486 33.517L386.436 34.0145C387.072 34.079 387.701 34.1492 388.321 34.2249L388.382 33.7286C389.68 33.8871 390.943 34.0697 392.165 34.2749L392.083 34.768C392.716 34.8744 393.339 34.9867 393.95 35.105L394.045 34.6141C395.34 34.8646 396.584 35.1414 397.77 35.4421L397.648 35.9267C398.274 36.0855 398.884 36.251 399.477 36.4228L399.616 35.9426C400.907 36.3169 402.117 36.7215 403.237 37.1529L403.057 37.6195C403.663 37.853 404.241 38.0942 404.79 38.3423L404.996 37.8867C406.267 38.4615 407.388 39.0754 408.34 39.722L408.059 40.1356C408.602 40.5047 409.084 40.882 409.503 41.2655L409.841 40.8968Z" stroke="#A134FF" stroke-dasharray="2 4"/>
<path d="M558.341 109.309C559.198 110.499 559.737 111.729 559.925 112.99L559.43 113.064C559.477 113.374 559.5 113.686 559.5 114C559.5 114.314 559.477 114.626 559.43 114.936L559.925 115.01C559.737 116.271 559.198 117.501 558.341 118.691L557.935 118.398C557.575 118.897 557.155 119.392 556.674 119.881L557.031 120.231C556.162 121.115 555.114 121.972 553.9 122.797L553.619 122.383C553.091 122.742 552.531 123.095 551.938 123.442L552.191 123.873C551.093 124.517 549.892 125.138 548.594 125.734L548.385 125.28C547.792 125.552 547.178 125.819 546.545 126.081L546.736 126.543C545.54 127.038 544.274 127.513 542.945 127.967L542.783 127.494C542.16 127.707 541.523 127.915 540.872 128.118L541.021 128.596C539.772 128.986 538.474 129.358 537.128 129.712L537.001 129.228C536.36 129.397 535.708 129.561 535.046 129.721L535.163 130.207C533.881 130.517 532.56 130.81 531.203 131.086L531.103 130.596C530.453 130.728 529.795 130.857 529.129 130.981L529.22 131.472C527.919 131.715 526.587 131.941 525.228 132.151L525.151 131.657C524.491 131.76 523.824 131.858 523.15 131.952L523.219 132.447C521.905 132.631 520.567 132.8 519.207 132.953L519.151 132.456C518.486 132.531 517.816 132.602 517.141 132.669L517.191 133.167C515.865 133.299 514.52 133.416 513.157 133.518L513.12 133.019C512.452 133.069 511.78 133.115 511.105 133.157L511.136 133.656C509.803 133.74 508.454 133.808 507.091 133.862L507.071 133.362C506.402 133.388 505.729 133.411 505.053 133.43L505.067 133.93C503.729 133.967 502.378 133.99 501.017 133.997L501.014 133.497C500.677 133.499 500.339 133.5 500 133.5C499.661 133.5 499.323 133.499 498.986 133.497L498.983 133.997C497.622 133.99 496.271 133.967 494.933 133.93L494.947 133.43C494.271 133.411 493.598 133.388 492.929 133.362L492.909 133.862C491.546 133.808 490.197 133.74 488.864 133.656L488.895 133.157C488.22 133.115 487.548 133.069 486.88 133.019L486.843 133.518C485.48 133.416 484.135 133.299 482.809 133.167L482.859 132.669C482.184 132.602 481.514 132.531 480.849 132.456L480.793 132.953C479.433 132.8 478.095 132.631 476.781 132.447L476.85 131.952C476.176 131.858 475.509 131.76 474.849 131.657L474.772 132.151C473.413 131.941 472.081 131.715 470.78 131.472L470.871 130.981C470.205 130.857 469.547 130.728 468.897 130.596L468.797 131.086C467.44 130.81 466.119 130.517 464.837 130.207L464.954 129.721C464.292 129.561 463.64 129.397 462.999 129.228L462.872 129.712C461.526 129.358 460.228 128.986 458.979 128.596L459.128 128.118C458.477 127.915 457.84 127.707 457.217 127.494L457.055 127.967C455.726 127.513 454.46 127.038 453.264 126.543L453.455 126.081C452.822 125.819 452.208 125.552 451.615 125.28L451.406 125.734C450.108 125.138 448.907 124.517 447.809 123.873L448.062 123.442C447.469 123.095 446.909 122.742 446.381 122.383L446.1 122.797C444.886 121.972 443.838 121.115 442.969 120.231L443.326 119.881C442.845 119.392 442.425 118.897 442.065 118.398L441.659 118.691C440.802 117.501 440.263 116.271 440.075 115.01L440.57 114.936C440.523 114.626 440.5 114.314 440.5 114C440.5 113.686 440.523 113.374 440.57 113.064L440.075 112.99C440.263 111.729 440.802 110.499 441.659 109.309L442.065 109.602C442.425 109.103 442.845 108.608 443.326 108.119L442.969 107.769C443.838 106.885 444.886 106.028 446.1 105.203L446.381 105.617C446.909 105.258 447.469 104.905 448.062 104.558L447.809 104.127C448.907 103.483 450.108 102.862 451.406 102.266L451.615 102.72C452.208 102.448 452.822 102.181 453.455 101.919L453.264 101.457C454.46 100.962 455.726 100.487 457.055 100.033L457.217 100.506C457.84 100.293 458.477 100.085 459.128 99.8815L458.979 99.4043C460.228 99.0142 461.526 98.6418 462.872 98.2881L462.999 98.7717C463.64 98.6031 464.292 98.4388 464.954 98.2788L464.837 97.7928C466.119 97.483 467.44 97.1897 468.797 96.9139L468.897 97.4039C469.547 97.2717 470.205 97.1435 470.871 97.0194L470.78 96.5279C472.081 96.2855 473.413 96.0588 474.772 95.8485L474.849 96.3426C475.509 96.2405 476.176 96.1422 476.85 96.0479L476.781 95.5527C478.095 95.3686 479.433 95.1997 480.793 95.0467L480.849 95.5435C481.514 95.4687 482.184 95.3977 482.859 95.3305L482.809 94.833C484.135 94.701 485.48 94.584 486.843 94.4823L486.88 94.981C487.548 94.9312 488.22 94.8851 488.895 94.8428L488.864 94.3438C490.197 94.2604 491.546 94.1917 492.909 94.1382L492.929 94.6378C493.598 94.6115 494.271 94.589 494.947 94.5701L494.933 94.0703C496.271 94.033 497.622 94.0104 498.983 94.0028L498.986 94.5028C499.323 94.5009 499.661 94.5 500 94.5C500.339 94.5 500.677 94.5009 501.014 94.5028L501.017 94.0028C502.378 94.0104 503.729 94.033 505.067 94.0703L505.053 94.5701C505.729 94.589 506.402 94.6115 507.071 94.6378L507.091 94.1382C508.454 94.1917 509.803 94.2604 511.136 94.3438L511.105 94.8428C511.78 94.8851 512.452 94.9312 513.12 94.981L513.157 94.4823C514.52 94.584 515.865 94.701 517.191 94.833L517.141 95.3305C517.816 95.3977 518.486 95.4687 519.151 95.5435L519.207 95.0467C520.567 95.1997 521.905 95.3686 523.219 95.5527L523.15 96.0479C523.824 96.1422 524.491 96.2405 525.151 96.3426L525.228 95.8485C526.587 96.0588 527.919 96.2855 529.22 96.5279L529.129 97.0194C529.795 97.1435 530.453 97.2717 531.103 97.4039L531.203 96.9139C532.56 97.1897 533.881 97.483 535.163 97.7928L535.046 98.2788C535.708 98.4388 536.36 98.6031 537.001 98.7717L537.128 98.2881C538.474 98.6418 539.772 99.0142 541.021 99.4043L540.872 99.8815C541.523 100.085 542.16 100.293 542.783 100.506L542.945 100.033C544.274 100.487 545.54 100.962 546.736 101.457L546.545 101.919C547.178 102.181 547.792 102.448 548.385 102.72L548.594 102.266C549.892 102.862 551.093 103.483 552.191 104.127L551.938 104.558C552.531 104.905 553.091 105.258 553.619 105.617L553.9 105.203C555.114 106.028 556.162 106.885 557.031 107.769L556.674 108.119C557.155 108.608 557.575 109.103 557.935 109.602L558.341 109.309Z" stroke="#A134FF" stroke-dasharray="2 4"/>
<ellipse opacity="0.1" cx="477" cy="32" rx="18" ry="7" fill="#A134FF"/>
<ellipse opacity="0.1" cx="226" cy="224" rx="15" ry="6" fill="#A134FF"/>
<path d="M68.6614 276.273C69.3592 277.489 69.7929 278.736 69.9419 280.007L69.4453 280.065C69.4817 280.375 69.5 280.687 69.5 281C69.5 281.313 69.4817 281.625 69.4453 281.935L69.9419 281.993C69.7929 283.264 69.3592 284.511 68.6614 285.727L68.2278 285.478C67.9222 286.01 67.5624 286.539 67.1492 287.063L67.5418 287.372C66.7804 288.338 65.8501 289.281 64.762 290.197L64.4399 289.815C63.9588 290.22 63.4452 290.62 62.9001 291.016L63.1938 291.421C62.1803 292.157 61.0628 292.873 59.8475 293.568L59.5993 293.134C59.0441 293.452 58.4678 293.765 57.871 294.074L58.1008 294.518C56.9713 295.103 55.7707 295.671 54.503 296.22L54.304 295.762C53.7095 296.02 53.0998 296.274 52.4754 296.524L52.6612 296.988C51.4718 297.464 50.2303 297.925 48.9396 298.37L48.7765 297.898C48.1621 298.11 47.5363 298.318 46.8995 298.523L47.0525 298.999C45.821 299.394 44.549 299.776 43.2387 300.144L43.1038 299.662C42.4768 299.838 41.8409 300.01 41.1964 300.179L41.3232 300.663C40.0655 300.992 38.7755 301.309 37.4549 301.612L37.3432 301.124C36.7068 301.27 36.0632 301.413 35.4127 301.553L35.5175 302.042C34.2425 302.315 32.941 302.576 31.6147 302.823L31.5229 302.332C30.8786 302.452 30.2284 302.57 29.5724 302.684L29.6581 303.176C28.3708 303.4 27.0617 303.612 25.7319 303.812L25.6578 303.317C25.0066 303.415 24.3504 303.509 23.6894 303.601L23.758 304.096C22.4616 304.276 21.147 304.444 19.8151 304.599L19.7571 304.103C19.1031 304.179 18.4451 304.252 17.7829 304.323L17.8358 304.82C16.5301 304.959 15.2088 305.086 13.8731 305.202L13.8301 304.704C13.1765 304.76 12.5195 304.814 11.8592 304.864L11.8974 305.363C10.587 305.464 9.26353 305.553 7.9279 305.63L7.89899 305.131C7.2401 305.169 6.57825 305.204 5.91356 305.237L5.93788 305.736C4.62401 305.8 3.29908 305.853 1.96402 305.894L1.94868 305.394C1.29031 305.414 0.629463 305.431 -0.0337448 305.446L-0.0228271 305.946C-1.3399 305.975 -2.66624 305.992 -4.00101 305.998L-4.00318 305.498C-4.33494 305.499 -4.66721 305.5 -5 305.5C-5.33279 305.5 -5.66506 305.499 -5.99682 305.498L-5.999 305.998C-7.33376 305.992 -8.6601 305.975 -9.97717 305.946L-9.96626 305.446C-10.6295 305.431 -11.2903 305.414 -11.9487 305.394L-11.964 305.894C-13.2991 305.853 -14.624 305.8 -15.9379 305.736L-15.9136 305.237C-16.5783 305.204 -17.2401 305.169 -17.899 305.131L-17.9279 305.63C-19.2635 305.553 -20.587 305.464 -21.8974 305.363L-21.8592 304.864C-22.5195 304.814 -23.1765 304.76 -23.8301 304.704L-23.8731 305.202C-25.2088 305.086 -26.5301 304.959 -27.8358 304.82L-27.7829 304.323C-28.445 304.252 -29.1031 304.179 -29.7571 304.103L-29.8151 304.599C-31.1469 304.444 -32.4616 304.276 -33.758 304.096L-33.6894 303.601C-34.3504 303.509 -35.0066 303.415 -35.6578 303.317L-35.7319 303.812C-37.0617 303.612 -38.3708 303.4 -39.6581 303.176L-39.5724 302.684C-40.2284 302.57 -40.8786 302.452 -41.5229 302.332L-41.6147 302.823C-42.941 302.576 -44.2425 302.315 -45.5175 302.042L-45.4126 301.553C-46.0632 301.413 -46.7068 301.27 -47.3432 301.124L-47.4549 301.612C-48.7755 301.309 -50.0655 300.992 -51.3232 300.663L-51.1964 300.179C-51.8409 300.01 -52.4768 299.838 -53.1038 299.662L-53.2387 300.144C-54.549 299.776 -55.821 299.394 -57.0525 298.999L-56.8995 298.523C-57.5363 298.318 -58.1621 298.11 -58.7765 297.898L-58.9396 298.37C-60.2302 297.925 -61.4718 297.464 -62.6612 296.988L-62.4754 296.524C-63.0998 296.274 -63.7094 296.02 -64.304 295.762L-64.503 296.22C-65.7707 295.671 -66.9713 295.103 -68.1008 294.518L-67.871 294.074C-68.4678 293.765 -69.0441 293.452 -69.5993 293.134L-69.8475 293.568C-71.0628 292.873 -72.1803 292.157 -73.1938 291.421L-72.9001 291.016C-73.4452 290.62 -73.9588 290.22 -74.4399 289.815L-74.762 290.197C-75.8501 289.281 -76.7804 288.338 -77.5418 287.372L-77.1492 287.063C-77.5624 286.539 -77.9222 286.01 -78.2278 285.478L-78.6614 285.727C-79.3592 284.511 -79.7929 283.264 -79.9419 281.993L-79.4453 281.935C-79.4817 281.625 -79.5 281.313 -79.5 281C-79.5 280.687 -79.4817 280.375 -79.4453 280.065L-79.9419 280.007C-79.7929 278.736 -79.3592 277.489 -78.6614 276.273L-78.2278 276.522C-77.9222 275.99 -77.5624 275.461 -77.1492 274.937L-77.5418 274.628C-76.7804 273.662 -75.8501 272.719 -74.762 271.803L-74.4399 272.185C-73.9588 271.78 -73.4452 271.38 -72.9001 270.984L-73.1938 270.579C-72.1803 269.843 -71.0628 269.127 -69.8475 268.432L-69.5993 268.866C-69.0441 268.548 -68.4678 268.235 -67.871 267.926L-68.1008 267.482C-66.9713 266.897 -65.7707 266.329 -64.503 265.78L-64.304 266.238C-63.7095 265.98 -63.0998 265.726 -62.4754 265.476L-62.6612 265.012C-61.4718 264.536 -60.2303 264.075 -58.9396 263.63L-58.7765 264.102C-58.1621 263.89 -57.5363 263.682 -56.8995 263.477L-57.0525 263.001C-55.821 262.606 -54.549 262.224 -53.2387 261.856L-53.1038 262.338C-52.4768 262.162 -51.8409 261.99 -51.1964 261.821L-51.3232 261.337C-50.0655 261.008 -48.7755 260.691 -47.4549 260.388L-47.3432 260.876C-46.7068 260.73 -46.0632 260.587 -45.4126 260.447L-45.5175 259.958C-44.2425 259.685 -42.941 259.424 -41.6147 259.177L-41.5229 259.668C-40.8786 259.548 -40.2284 259.43 -39.5724 259.316L-39.6581 258.824C-38.3708 258.6 -37.0617 258.388 -35.7319 258.188L-35.6578 258.683C-35.0066 258.585 -34.3504 258.491 -33.6894 258.399L-33.758 257.904C-32.4617 257.724 -31.147 257.556 -29.8151 257.401L-29.7571 257.897C-29.1031 257.821 -28.4451 257.748 -27.7829 257.677L-27.8358 257.18C-26.5301 257.041 -25.2088 256.914 -23.8731 256.798L-23.8301 257.296C-23.1765 257.24 -22.5195 257.186 -21.8592 257.136L-21.8974 256.637C-20.587 256.536 -19.2635 256.447 -17.9279 256.37L-17.899 256.869C-17.2401 256.831 -16.5783 256.796 -15.9136 256.763L-15.9379 256.264C-14.624 256.2 -13.2991 256.147 -11.964 256.106L-11.9487 256.606C-11.2903 256.586 -10.6295 256.569 -9.96626 256.554L-9.97717 256.054C-8.6601 256.025 -7.33376 256.008 -5.99899 256.002L-5.99682 256.502C-5.66506 256.501 -5.33279 256.5 -5 256.5C-4.66721 256.5 -4.33494 256.501 -4.00318 256.502L-4.001 256.002C-2.66624 256.008 -1.3399 256.025 -0.0228271 256.054L-0.0337448 256.554C0.629463 256.569 1.29031 256.586 1.94868 256.606L1.96402 256.106C3.29908 256.147 4.62402 256.2 5.93788 256.264L5.91356 256.763C6.57825 256.796 7.2401 256.831 7.89899 256.869L7.92789 256.37C9.26353 256.447 10.587 256.536 11.8974 256.637L11.8592 257.136C12.5195 257.186 13.1765 257.24 13.8301 257.296L13.8731 256.798C15.2088 256.914 16.5301 257.041 17.8358 257.18L17.7829 257.677C18.445 257.748 19.1031 257.821 19.7571 257.897L19.8151 257.401C21.1469 257.556 22.4616 257.724 23.758 257.904L23.6894 258.399C24.3504 258.491 25.0066 258.585 25.6578 258.683L25.7319 258.188C27.0617 258.388 28.3708 258.6 29.6581 258.824L29.5724 259.316C30.2284 259.43 30.8786 259.548 31.5229 259.668L31.6147 259.177C32.941 259.424 34.2425 259.685 35.5175 259.958L35.4126 260.447C36.0632 260.587 36.7068 260.73 37.3432 260.876L37.4549 260.388C38.7755 260.691 40.0655 261.008 41.3232 261.337L41.1964 261.821C41.8409 261.99 42.4768 262.162 43.1038 262.338L43.2387 261.856C44.549 262.224 45.821 262.606 47.0525 263.001L46.8995 263.477C47.5363 263.682 48.1621 263.89 48.7765 264.102L48.9396 263.63C50.2303 264.075 51.4718 264.536 52.6612 265.012L52.4754 265.476C53.0998 265.726 53.7095 265.98 54.304 266.238L54.503 265.78C55.7707 266.329 56.9713 266.897 58.1008 267.482L57.871 267.926C58.4678 268.235 59.0441 268.548 59.5993 268.866L59.8475 268.432C61.0628 269.127 62.1803 269.843 63.1938 270.579L62.9001 270.984C63.4452 271.38 63.9588 271.78 64.4399 272.185L64.762 271.803C65.8501 272.719 66.7804 273.662 67.5418 274.628L67.1492 274.937C67.5624 275.461 67.9222 275.99 68.2278 276.522L68.6614 276.273Z" stroke="#A134FF" stroke-dasharray="2 4"/>
<ellipse opacity="0.1" cx="12" cy="126" rx="30" ry="10" fill="#A134FF"/>
<ellipse opacity="0.1" cx="334" cy="262" rx="24" ry="8" fill="#A134FF"/>
<path d="M384.5 245.5L353 258" stroke="#A134FF" stroke-dasharray="2 4"/>
<path d="M406.5 52.5L475.5 96.5" stroke="#A134FF" stroke-dasharray="2 4"/>
<path d="M205.5 -4L113 53.5" stroke="#A134FF" stroke-dasharray="2 4"/>
<path d="M157.838 223.393C158.938 224.53 159.641 225.726 159.894 226.964L159.404 227.064C159.468 227.374 159.5 227.686 159.5 228C159.5 228.314 159.468 228.626 159.404 228.936L159.894 229.036C159.641 230.274 158.938 231.47 157.838 232.607L157.479 232.259C157.043 232.709 156.54 233.153 155.97 233.589L156.273 233.986C155.272 234.753 154.083 235.486 152.727 236.179L152.5 235.734C151.911 236.035 151.289 236.329 150.636 236.615L150.837 237.073C149.635 237.6 148.331 238.099 146.935 238.568L146.776 238.094C146.138 238.308 145.481 238.516 144.804 238.717L144.946 239.196C143.665 239.578 142.318 239.934 140.912 240.265L140.797 239.779C140.134 239.934 139.458 240.084 138.769 240.228L138.872 240.718C137.547 240.995 136.175 241.249 134.763 241.48L134.682 240.986C134.006 241.097 133.321 241.201 132.627 241.301L132.697 241.796C131.348 241.988 129.965 242.159 128.552 242.308L128.5 241.811C127.817 241.882 127.127 241.949 126.43 242.01L126.474 242.508C125.11 242.628 123.72 242.726 122.309 242.803L122.281 242.304C121.594 242.341 120.901 242.374 120.204 242.4L120.223 242.9C118.849 242.953 117.456 242.985 116.048 242.996L116.044 242.496C115.697 242.499 115.349 242.5 115 242.5C114.651 242.5 114.303 242.499 113.956 242.496L113.952 242.996C112.544 242.985 111.151 242.953 109.777 242.9L109.796 242.4C109.099 242.374 108.406 242.341 107.719 242.304L107.691 242.803C106.28 242.726 104.89 242.628 103.526 242.508L103.57 242.01C102.873 241.949 102.183 241.882 101.5 241.811L101.448 242.308C100.035 242.159 98.6518 241.988 97.3027 241.796L97.3733 241.301C96.6789 241.201 95.9937 241.097 95.318 240.986L95.2375 241.48C93.8246 241.249 92.4534 240.995 91.1284 240.718L91.2307 240.228C90.5418 240.084 89.8656 239.934 89.2029 239.779L89.0885 240.265C87.6819 239.934 86.3348 239.578 85.0535 239.196L85.1961 238.717C84.5194 238.516 83.8617 238.308 83.2238 238.094L83.0646 238.568C81.6686 238.099 80.3649 237.6 79.1632 237.073L79.3638 236.615C78.7106 236.329 78.089 236.035 77.5005 235.734L77.2728 236.179C75.9169 235.486 74.7285 234.753 73.7265 233.986L74.0303 233.589C73.4604 233.153 72.9567 232.709 72.5212 232.259L72.1618 232.607C71.0624 231.47 70.359 230.274 70.1057 229.036L70.5956 228.936C70.5321 228.626 70.5 228.314 70.5 228C70.5 227.686 70.5321 227.374 70.5956 227.064L70.1057 226.964C70.359 225.726 71.0624 224.53 72.1618 223.393L72.5212 223.741C72.9567 223.291 73.4604 222.847 74.0303 222.411L73.7265 222.014C74.7284 221.247 75.9169 220.514 77.2728 219.821L77.5005 220.266C78.089 219.965 78.7106 219.671 79.3638 219.385L79.1632 218.927C80.3649 218.4 81.6686 217.901 83.0646 217.432L83.2238 217.906C83.8617 217.692 84.5194 217.484 85.196 217.283L85.0535 216.804C86.3348 216.422 87.6819 216.066 89.0885 215.735L89.2029 216.221C89.8656 216.066 90.5418 215.916 91.2307 215.772L91.1284 215.282C92.4534 215.005 93.8246 214.751 95.2375 214.52L95.318 215.014C95.9936 214.903 96.6789 214.799 97.3733 214.699L97.3027 214.204C98.6518 214.012 100.035 213.841 101.448 213.692L101.5 214.189C102.183 214.118 102.873 214.051 103.57 213.99L103.526 213.492C104.89 213.372 106.28 213.274 107.691 213.197L107.719 213.696C108.406 213.659 109.099 213.626 109.796 213.6L109.777 213.1C111.151 213.047 112.544 213.015 113.952 213.004L113.956 213.504C114.303 213.501 114.651 213.5 115 213.5C115.349 213.5 115.697 213.501 116.044 213.504L116.048 213.004C117.456 213.015 118.849 213.047 120.223 213.1L120.204 213.6C120.901 213.626 121.594 213.659 122.281 213.696L122.309 213.197C123.72 213.274 125.11 213.372 126.474 213.492L126.43 213.99C127.127 214.051 127.817 214.118 128.5 214.189L128.552 213.692C129.965 213.841 131.348 214.012 132.697 214.204L132.627 214.699C133.321 214.799 134.006 214.903 134.682 215.014L134.762 214.52C136.175 214.751 137.547 215.005 138.872 215.282L138.769 215.772C139.458 215.916 140.134 216.066 140.797 216.221L140.912 215.735C142.318 216.066 143.665 216.422 144.946 216.804L144.804 217.283C145.481 217.484 146.138 217.692 146.776 217.906L146.935 217.432C148.331 217.901 149.635 218.4 150.837 218.927L150.636 219.385C151.289 219.671 151.911 219.965 152.5 220.266L152.727 219.821C154.083 220.514 155.272 221.247 156.273 222.014L155.97 222.411C156.54 222.847 157.043 223.291 157.479 223.741L157.838 223.393Z" stroke="#A134FF" stroke-dasharray="2 4"/>
<path d="M488.341 228.309C489.198 229.499 489.737 230.729 489.925 231.99L489.43 232.064C489.477 232.374 489.5 232.686 489.5 233C489.5 233.314 489.477 233.626 489.43 233.936L489.925 234.01C489.737 235.271 489.198 236.501 488.341 237.691L487.935 237.398C487.575 237.897 487.155 238.392 486.674 238.881L487.031 239.231C486.162 240.115 485.114 240.972 483.9 241.797L483.619 241.383C483.091 241.742 482.531 242.095 481.938 242.442L482.191 242.873C481.093 243.517 479.892 244.138 478.594 244.734L478.385 244.28C477.792 244.552 477.178 244.819 476.545 245.081L476.736 245.543C475.54 246.038 474.274 246.513 472.945 246.967L472.783 246.494C472.16 246.707 471.523 246.915 470.872 247.118L471.021 247.596C469.772 247.986 468.474 248.358 467.128 248.712L467.001 248.228C466.36 248.397 465.708 248.561 465.046 248.721L465.163 249.207C463.881 249.517 462.56 249.81 461.203 250.086L461.103 249.596C460.453 249.728 459.795 249.857 459.129 249.981L459.22 250.472C457.919 250.715 456.587 250.941 455.228 251.151L455.151 250.657C454.491 250.76 453.824 250.858 453.15 250.952L453.219 251.447C451.905 251.631 450.567 251.8 449.207 251.953L449.151 251.456C448.486 251.531 447.816 251.602 447.141 251.669L447.191 252.167C445.865 252.299 444.52 252.416 443.157 252.518L443.12 252.019C442.452 252.069 441.78 252.115 441.105 252.157L441.136 252.656C439.803 252.74 438.454 252.808 437.091 252.862L437.071 252.362C436.402 252.388 435.729 252.411 435.053 252.43L435.067 252.93C433.729 252.967 432.378 252.99 431.017 252.997L431.014 252.497C430.677 252.499 430.339 252.5 430 252.5C429.661 252.5 429.323 252.499 428.986 252.497L428.983 252.997C427.622 252.99 426.271 252.967 424.933 252.93L424.947 252.43C424.271 252.411 423.598 252.388 422.929 252.362L422.909 252.862C421.546 252.808 420.197 252.74 418.864 252.656L418.895 252.157C418.22 252.115 417.548 252.069 416.88 252.019L416.843 252.518C415.48 252.416 414.135 252.299 412.809 252.167L412.859 251.669C412.184 251.602 411.514 251.531 410.849 251.456L410.793 251.953C409.433 251.8 408.095 251.631 406.781 251.447L406.85 250.952C406.176 250.858 405.509 250.76 404.849 250.657L404.772 251.151C403.413 250.941 402.081 250.715 400.78 250.472L400.871 249.981C400.205 249.857 399.547 249.728 398.897 249.596L398.797 250.086C397.44 249.81 396.119 249.517 394.837 249.207L394.954 248.721C394.292 248.561 393.64 248.397 392.999 248.228L392.872 248.712C391.526 248.358 390.228 247.986 388.979 247.596L389.128 247.118C388.477 246.915 387.84 246.707 387.217 246.494L387.055 246.967C385.726 246.513 384.46 246.038 383.264 245.543L383.455 245.081C382.822 244.819 382.208 244.552 381.615 244.28L381.406 244.734C380.108 244.138 378.907 243.517 377.809 242.873L378.062 242.442C377.469 242.095 376.909 241.742 376.381 241.383L376.1 241.797C374.886 240.972 373.838 240.115 372.969 239.231L373.326 238.881C372.845 238.392 372.425 237.897 372.065 237.398L371.659 237.691C370.802 236.501 370.263 235.271 370.075 234.01L370.57 233.936C370.523 233.626 370.5 233.314 370.5 233C370.5 232.686 370.523 232.374 370.57 232.064L370.075 231.99C370.263 230.729 370.802 229.499 371.659 228.309L372.065 228.602C372.425 228.103 372.845 227.608 373.326 227.119L372.969 226.769C373.838 225.885 374.886 225.028 376.1 224.203L376.381 224.617C376.909 224.258 377.469 223.905 378.062 223.558L377.809 223.127C378.907 222.483 380.108 221.862 381.406 221.266L381.615 221.72C382.208 221.448 382.822 221.181 383.455 220.919L383.264 220.457C384.46 219.962 385.726 219.487 387.055 219.033L387.217 219.506C387.84 219.293 388.477 219.085 389.128 218.882L388.979 218.404C390.228 218.014 391.526 217.642 392.872 217.288L392.999 217.772C393.64 217.603 394.292 217.439 394.954 217.279L394.837 216.793C396.119 216.483 397.44 216.19 398.797 215.914L398.897 216.404C399.547 216.272 400.205 216.143 400.871 216.019L400.78 215.528C402.081 215.285 403.413 215.059 404.772 214.849L404.849 215.343C405.509 215.24 406.176 215.142 406.85 215.048L406.781 214.553C408.095 214.369 409.433 214.2 410.793 214.047L410.849 214.544C411.514 214.469 412.184 214.398 412.859 214.331L412.809 213.833C414.135 213.701 415.48 213.584 416.843 213.482L416.88 213.981C417.548 213.931 418.22 213.885 418.895 213.843L418.864 213.344C420.197 213.26 421.546 213.192 422.909 213.138L422.929 213.638C423.598 213.612 424.271 213.589 424.947 213.57L424.933 213.07C426.271 213.033 427.622 213.01 428.983 213.003L428.986 213.503C429.323 213.501 429.661 213.5 430 213.5C430.339 213.5 430.677 213.501 431.014 213.503L431.017 213.003C432.378 213.01 433.729 213.033 435.067 213.07L435.053 213.57C435.729 213.589 436.402 213.612 437.071 213.638L437.091 213.138C438.454 213.192 439.803 213.26 441.136 213.344L441.105 213.843C441.78 213.885 442.452 213.931 443.12 213.981L443.157 213.482C444.52 213.584 445.865 213.701 447.191 213.833L447.141 214.331C447.816 214.398 448.486 214.469 449.151 214.544L449.207 214.047C450.567 214.2 451.905 214.369 453.219 214.553L453.15 215.048C453.824 215.142 454.491 215.24 455.151 215.343L455.228 214.849C456.587 215.059 457.919 215.285 459.22 215.528L459.129 216.019C459.795 216.143 460.453 216.272 461.103 216.404L461.203 215.914C462.56 216.19 463.881 216.483 465.163 216.793L465.046 217.279C465.708 217.439 466.36 217.603 467.001 217.772L467.128 217.288C468.474 217.642 469.772 218.014 471.021 218.404L470.872 218.882C471.523 219.085 472.16 219.293 472.783 219.506L472.945 219.033C474.274 219.487 475.54 219.962 476.736 220.457L476.545 220.919C477.178 221.181 477.792 221.448 478.385 221.72L478.594 221.266C479.892 221.862 481.093 222.483 482.191 223.127L481.938 223.558C482.531 223.905 483.091 224.258 483.619 224.617L483.9 224.203C485.114 225.028 486.162 225.885 487.031 226.769L486.674 227.119C487.155 227.608 487.575 228.103 487.935 228.602L488.341 228.309Z" stroke="#A134FF" stroke-dasharray="2 4"/>
<circle cx="430" cy="214" r="14.5" fill="#F9F2FF" stroke="#A134FF"/>
<path d="M429.5 228.492C421.723 228.228 415.5 221.841 415.5 214C415.5 206.159 421.723 199.772 429.5 199.508V199.513V199.566V199.619V199.672V199.726V199.78V199.834V199.888V199.943V199.998V200.054V200.109V200.165V200.221V200.277V200.334V200.391V200.448V200.506V200.563V200.621V200.679V200.738V200.796V200.855V200.914V200.974V201.033V201.093V201.153V201.214V201.274V201.335V201.396V201.458V201.519V201.581V201.643V201.705V201.767V201.83V201.893V201.956V202.019V202.083V202.147V202.21V202.275V202.339V202.404V202.468V202.533V202.599V202.664V202.729V202.795V202.861V202.927V202.994V203.06V203.127V203.194V203.261V203.329V203.396V203.464V203.532V203.6V203.668V203.736V203.805V203.874V203.943V204.012V204.081V204.15V204.22V204.29V204.36V204.43V204.5V204.571V204.641V204.712V204.783V204.854V204.925V204.996V205.068V205.139V205.211V205.283V205.355V205.427V205.5V205.572V205.645V205.718V205.79V205.863V205.937V206.01V206.083V206.157V206.23V206.304V206.378V206.452V206.526V206.6V206.675V206.749V206.824V206.898V206.973V207.048V207.123V207.198V207.273V207.349V207.424V207.5V207.575V207.651V207.727V207.803V207.879V207.955V208.031V208.107V208.183V208.26V208.336V208.413V208.489V208.566V208.643V208.72V208.797V208.874V208.951V209.028V209.105V209.182V209.259V209.337V209.414V209.492V209.569V209.647V209.724V209.802V209.88V209.958V210.036V210.113V210.191V210.269V210.347V210.425V210.503V210.582V210.66V210.738V210.816V210.894V210.973V211.051V211.129V211.208V211.286V211.364V211.443V211.521V211.6V211.678V211.757V211.835V211.914V211.992V212.071V212.149V212.228V212.306V212.385V212.463V212.542V212.62V212.699V212.777V212.856V212.934V213.012V213.091V213.169V213.248V213.326V213.404V213.483V213.561V213.639V213.718V213.796V213.874V213.952V214.03V214.109V214.187V214.265V214.343V214.421V214.499V214.576V214.654V214.732V214.81V214.887V214.965V215.043V215.12V215.198V215.275V215.352V215.43V215.507V215.584V215.661V215.738V215.815V215.892V215.969V216.046V216.123V216.199V216.276V216.352V216.428V216.505V216.581V216.657V216.733V216.809V216.885V216.961V217.036V217.112V217.188V217.263V217.338V217.413V217.488V217.563V217.638V217.713V217.788V217.862V217.937V218.011V218.085V218.159V218.233V218.307V218.381V218.455V218.528V218.602V218.675V218.748V218.821V218.894V218.966V219.039V219.112V219.184V219.256V219.328V219.4V219.472V219.543V219.615V219.686V219.757V219.828V219.899V219.97V220.04V220.111V220.181V220.251V220.321V220.391V220.46V220.53V220.599V220.668V220.737V220.806V220.874V220.943V221.011V221.079V221.147V221.214V221.282V221.349V221.416V221.483V221.55V221.617V221.683V221.749V221.815V221.881V221.946V222.012V222.077V222.142V222.207V222.271V222.335V222.4V222.463V222.527V222.591V222.654V222.717V222.78V222.842V222.905V222.967V223.029V223.091V223.152V223.213V223.274V223.335V223.396V223.456V223.516V223.576V223.636V223.695V223.754V223.813V223.872V223.93V223.988V224.046V224.104V224.161V224.218V224.275V224.331V224.388V224.444V224.5V224.555V224.61V224.665V224.72V224.775V224.829V224.883V224.936V224.99V225.043V225.096V225.148V225.2V225.252V225.304V225.355V225.407V225.457V225.508V225.558V225.608V225.658V225.707V225.756V225.805V225.853V225.901V225.949V225.996V226.044V226.09V226.137V226.183V226.229V226.275V226.32V226.365V226.41V226.454V226.498V226.542V226.585V226.628V226.671V226.713V226.755V226.797V226.838V226.879V226.92V226.96V227V227.039V227.079V227.118V227.156V227.194V227.232V227.27V227.307V227.344V227.38V227.416V227.452V227.487V227.522V227.557V227.591V227.625V227.659V227.692V227.724V227.757V227.789V227.82V227.852V227.883V227.913V227.943V227.973V228.002V228.031V228.06V228.088V228.115V228.143V228.17V228.196V228.222V228.248V228.274V228.298V228.323V228.347V228.371V228.394V228.417V228.439V228.462V228.483V228.492Z" fill="#A134FF" stroke="#A134FF"/>
<circle cx="115" cy="218" r="9.5" fill="#F9F2FF" stroke="#A134FF"/>
<path d="M114.5 227.487C109.486 227.227 105.5 223.079 105.5 218C105.5 212.921 109.486 208.773 114.5 208.513V227.487Z" fill="#A134FF" stroke="#A134FF"/>
<circle cx="375" cy="37" r="9.5" fill="#F9F2FF" stroke="#A134FF"/>
<path d="M374.5 46.4871C369.486 46.2271 365.5 42.079 365.5 37C365.5 31.921 369.486 27.7729 374.5 27.5129V46.4871Z" fill="#A134FF" stroke="#A134FF"/>
<circle cx="90" cy="54" r="14.5" fill="#F9F2FF" stroke="#A134FF"/>
<circle cx="260" cy="110" r="29.5" fill="white" stroke="black"/>
<circle opacity="0.3" cx="260" cy="110" r="24.5" fill="white" stroke="#A134FF"/>
<path fill-rule="evenodd" clip-rule="evenodd" d="M269.084 107.648C269.46 105.126 267.54 103.771 264.915 102.866L265.767 99.4504L263.687 98.9322L262.858 102.258C262.312 102.122 261.75 101.993 261.192 101.866L262.027 98.5182L259.949 98L259.097 101.415C258.644 101.312 258.2 101.21 257.769 101.103L257.772 101.092L254.904 100.376L254.351 102.597C254.351 102.597 255.894 102.95 255.861 102.972C256.703 103.183 256.856 103.74 256.83 104.182L255.86 108.073C255.918 108.088 255.993 108.109 256.076 108.142L255.857 108.088L254.497 113.539C254.393 113.795 254.132 114.179 253.544 114.033C253.564 114.064 252.032 113.656 252.032 113.656L251 116.037L253.706 116.711C254.012 116.788 254.314 116.867 254.612 116.945L254.612 116.945C254.806 116.995 254.998 117.045 255.188 117.094L254.328 120.55L256.405 121.068L257.257 117.649C257.824 117.803 258.375 117.946 258.914 118.079L258.065 121.482L260.144 122L261.004 118.551C264.55 119.222 267.217 118.952 268.338 115.745C269.242 113.163 268.294 111.674 266.428 110.702C267.787 110.388 268.81 109.494 269.083 107.648H269.084ZM264.333 114.31C263.743 116.68 260.032 115.699 258.336 115.251C258.184 115.211 258.049 115.175 257.933 115.146L259.075 110.569C259.216 110.604 259.389 110.643 259.585 110.687L259.585 110.687C261.34 111.081 264.936 111.888 264.334 114.31H264.333ZM259.939 108.563C261.354 108.941 264.439 109.764 264.976 107.611C265.525 105.408 262.526 104.744 261.061 104.42C260.896 104.384 260.751 104.352 260.632 104.322L259.597 108.474C259.695 108.498 259.81 108.529 259.939 108.563Z" fill="#AD4EFF"/>
</g>
<defs>
<clipPath id="clip0_192_698">
<rect width="520" height="300" fill="white"/>
</clipPath>
</defs>
</svg>
