<svg width="520" height="300" viewBox="0 0 520 300" fill="none" xmlns="http://www.w3.org/2000/svg">
<g clip-path="url(#clip0_192_788)">
<rect width="520" height="300" rx="12" fill="#F4FFF9"/>
<path opacity="0.1" d="M54.5259 -6.74472C54.8219 -6.90409 55.1781 -6.90409 55.4741 -6.74472L118.365 27.1195C119.066 27.4971 119.066 28.5029 118.365 28.8805L55.4741 62.7447C55.1781 62.9041 54.8219 62.9041 54.5259 62.7447L-8.36484 28.8805C-9.06604 28.5029 -9.06604 27.4971 -8.36484 27.1195L54.5259 -6.74472Z" fill="#23D3C4"/>
<path d="M335.204 235.665L338.652 233.749L338.895 234.186L339.757 233.707C339.908 233.623 340.092 233.623 340.243 233.707L341.105 234.186L341.348 233.749L344.796 235.665L344.554 236.102L346.278 237.06L346.521 236.623L349.969 238.539L349.727 238.976L351.451 239.934L351.694 239.497L355.142 241.412L354.9 241.85L356.624 242.808L356.867 242.37L360.315 244.286L360.073 244.723L361.797 245.681L362.04 245.244L365.488 247.16L365.246 247.597L366.97 248.555L367.213 248.118L370.661 250.034L370.419 250.471L372.143 251.429L372.386 250.992L375.834 252.908L375.592 253.345L377.316 254.303L377.559 253.866L381.007 255.782L380.765 256.219L382.489 257.177L382.732 256.74L386.18 258.656L385.938 259.093L387.662 260.051L387.905 259.614L391.353 261.53L391.111 261.967L392.835 262.925L393.078 262.488L396.526 264.404L396.284 264.841L398.008 265.799L398.251 265.362L401.699 267.277L401.457 267.715L403.181 268.672L403.424 268.235L406.872 270.151L406.63 270.588L408.354 271.546L408.597 271.109L412.045 273.025L411.803 273.462L413.527 274.42L413.77 273.983L417.218 275.899L416.976 276.336L418.7 277.294L418.943 276.857L422.391 278.773L422.149 279.21L423.873 280.168L424.116 279.731L427.564 281.647L427.322 282.084L428.184 282.563C428.241 282.595 428.287 282.633 428.323 282.675L428.701 282.348C429.021 282.718 429.021 283.282 428.701 283.652L428.323 283.325C428.287 283.367 428.241 283.405 428.184 283.437L427.322 283.916L427.564 284.353L424.116 286.269L423.873 285.832L422.149 286.79L422.391 287.227L418.943 289.143L418.7 288.706L416.976 289.664L417.218 290.101L413.77 292.017L413.527 291.58L411.803 292.538L412.045 292.975L408.597 294.891L408.354 294.454L406.63 295.412L406.872 295.849L403.424 297.765L403.181 297.328L401.457 298.285L401.699 298.723L398.251 300.638L398.008 300.201L396.284 301.159L396.526 301.596L393.078 303.512L392.835 303.075L391.111 304.033L391.353 304.47L387.905 306.386L387.662 305.949L385.938 306.907L386.18 307.344L382.732 309.26L382.489 308.823L380.765 309.781L381.007 310.218L377.559 312.134L377.316 311.697L375.592 312.655L375.834 313.092L372.386 315.008L372.143 314.571L370.419 315.529L370.661 315.966L367.213 317.882L366.97 317.445L365.246 318.403L365.488 318.84L362.04 320.756L361.797 320.319L360.073 321.277L360.315 321.714L356.867 323.63L356.624 323.192L354.9 324.15L355.142 324.588L351.694 326.503L351.451 326.066L349.727 327.024L349.969 327.461L346.521 329.377L346.278 328.94L344.554 329.898L344.796 330.335L341.348 332.251L341.105 331.814L340.243 332.293C340.092 332.377 339.908 332.377 339.757 332.293L338.895 331.814L338.652 332.251L335.204 330.335L335.446 329.898L333.722 328.94L333.479 329.377L330.031 327.461L330.273 327.024L328.549 326.066L328.306 326.503L324.858 324.588L325.1 324.15L323.376 323.192L323.133 323.63L319.685 321.714L319.927 321.277L318.203 320.319L317.96 320.756L314.512 318.84L314.754 318.403L313.03 317.445L312.787 317.882L309.339 315.966L309.581 315.529L307.857 314.571L307.614 315.008L304.166 313.092L304.408 312.655L302.684 311.697L302.441 312.134L298.993 310.218L299.235 309.781L297.511 308.823L297.268 309.26L293.82 307.344L294.062 306.907L292.338 305.949L292.095 306.386L288.647 304.47L288.889 304.033L287.165 303.075L286.922 303.512L283.474 301.596L283.716 301.159L281.992 300.201L281.749 300.638L278.301 298.723L278.543 298.285L276.819 297.328L276.576 297.765L273.128 295.849L273.37 295.412L271.646 294.454L271.403 294.891L267.955 292.975L268.197 292.538L266.473 291.58L266.23 292.017L262.782 290.101L263.024 289.664L261.3 288.706L261.057 289.143L257.609 287.227L257.851 286.79L256.127 285.832L255.884 286.269L252.436 284.353L252.678 283.916L251.816 283.437C251.759 283.405 251.713 283.367 251.677 283.325L251.299 283.652C250.979 283.282 250.979 282.718 251.299 282.348L251.677 282.675C251.713 282.633 251.759 282.595 251.816 282.563L252.678 282.084L252.436 281.647L255.884 279.731L256.127 280.168L257.851 279.21L257.609 278.773L261.057 276.857L261.3 277.294L263.024 276.336L262.782 275.899L266.23 273.983L266.473 274.42L268.197 273.462L267.955 273.025L271.403 271.109L271.646 271.546L273.37 270.588L273.128 270.151L276.576 268.235L276.819 268.672L278.543 267.715L278.301 267.277L281.749 265.362L281.992 265.799L283.716 264.841L283.474 264.404L286.922 262.488L287.165 262.925L288.889 261.967L288.647 261.53L292.095 259.614L292.338 260.051L294.062 259.093L293.82 258.656L297.268 256.74L297.511 257.177L299.235 256.219L298.993 255.782L302.441 253.866L302.684 254.303L304.408 253.345L304.166 252.908L307.614 250.992L307.857 251.429L309.581 250.471L309.339 250.034L312.787 248.118L313.03 248.555L314.754 247.597L314.512 247.16L317.96 245.244L318.203 245.681L319.927 244.723L319.685 244.286L323.133 242.37L323.376 242.808L325.1 241.85L324.858 241.412L328.306 239.497L328.549 239.934L330.273 238.976L330.031 238.539L333.479 236.623L333.722 237.06L335.446 236.102L335.204 235.665Z" stroke="#23D3C4" stroke-dasharray="2 4"/>
<path opacity="0.1" d="M194.514 203.27C194.816 203.102 195.184 203.102 195.486 203.27L238.427 227.126C239.112 227.507 239.112 228.493 238.427 228.874L195.486 252.73C195.184 252.898 194.816 252.898 194.514 252.73L151.573 228.874C150.888 228.493 150.888 227.507 151.573 227.126L194.514 203.27Z" fill="#23D3C4"/>
<circle cx="195" cy="222" r="13.5" fill="white" stroke="#23D3C4"/>
<path d="M193.166 221.088C194.663 222.872 194.753 225.455 194.693 226.684C194.685 226.848 194.553 226.959 194.39 226.938C193.169 226.784 190.641 226.246 189.144 224.462C187.647 222.678 187.557 220.095 187.616 218.865C187.624 218.702 187.757 218.591 187.919 218.611C189.14 218.766 191.669 219.304 193.166 221.088Z" fill="#23D3C4" stroke="#23D3C4" stroke-width="0.75"/>
<path d="M200.665 222.212C199.168 223.996 196.64 224.533 195.419 224.688C195.256 224.709 195.124 224.598 195.116 224.434C195.056 223.205 195.146 220.621 196.643 218.837C198.14 217.053 200.669 216.516 201.89 216.361C202.052 216.34 202.185 216.452 202.193 216.615C202.252 217.845 202.162 220.428 200.665 222.212Z" fill="#23D3C4" stroke="#23D3C4" stroke-width="0.75"/>
<path d="M194.904 230.274V224.274" stroke="#23D3C4" stroke-linecap="round"/>
<path opacity="0.1" d="M504.486 33.3087C504.802 33.1187 505.198 33.1187 505.514 33.3087L528.571 47.1425C529.218 47.5309 529.218 48.4691 528.571 48.8575L505.514 62.6913C505.198 62.8813 504.802 62.8813 504.486 62.6913L481.429 48.8575C480.782 48.4691 480.782 47.5309 481.429 47.1425L504.486 33.3087Z" fill="#23D3C4"/>
<path d="M415.153 55.6927L418.642 53.7544L418.885 54.1915L419.757 53.7069C419.908 53.623 420.092 53.623 420.243 53.7069L421.115 54.1915L421.358 53.7544L424.847 55.6927L424.604 56.1298L426.349 57.099L426.591 56.6619L430.08 58.6003L429.838 59.0373L431.582 60.0065L431.825 59.5694L435.314 61.5078L435.071 61.9449L436.816 62.914L437.059 62.477L440.548 64.4153L440.305 64.8524L442.049 65.8216L442.292 65.3845L445.781 67.3229L445.538 67.7599L447.283 68.7291L447.526 68.292L451.015 70.2304L450.772 70.6675L452.516 71.6366L452.759 71.1996L456.248 73.1379L456.005 73.575L457.75 74.5442L457.993 74.1071L461.482 76.0454L461.239 76.4825L462.983 77.4517L463.226 77.0146L466.715 78.953L466.473 79.39L468.217 80.3592L468.46 79.9221L471.949 81.8605L471.706 82.2976L473.451 83.2667L473.693 82.8297L477.182 84.768L476.94 85.2051L478.684 86.1743L478.927 85.7372L482.416 87.6756L482.173 88.1126L483.918 89.0818L484.161 88.6447L487.65 90.5831L487.407 91.0202L489.151 91.9893L489.394 91.5523L492.883 93.4906L492.64 93.9277L494.385 94.8969L494.628 94.4598L498.117 96.3981L497.874 96.8352L499.618 97.8044L499.861 97.3673L503.35 99.3057L503.107 99.7428L504.852 100.712L505.095 100.275L508.584 102.213L508.341 102.65L510.085 103.619L510.328 103.182L513.817 105.121L513.575 105.558L515.319 106.527L515.562 106.09L519.051 108.028L518.808 108.465L520.553 109.435L520.795 108.997L524.284 110.936L524.042 111.373L525.786 112.342L526.029 111.905L529.518 113.843L529.275 114.28L531.02 115.25L531.263 114.813L534.752 116.751L534.509 117.188L536.253 118.157L536.496 117.72L539.985 119.658L539.742 120.095L541.487 121.065L541.73 120.628L545.219 122.566L544.976 123.003L546.72 123.972L546.963 123.535L550.452 125.473L550.209 125.911L551.954 126.88L552.197 126.443L555.686 128.381L555.443 128.818L557.188 129.787L557.43 129.35L560.919 131.289L560.677 131.726L562.421 132.695L562.664 132.258L566.153 134.196L565.91 134.633L567.655 135.602L567.897 135.165L571.386 137.104L571.144 137.541L572.888 138.51L573.131 138.073L576.62 140.011L576.377 140.448L578.122 141.417L578.365 140.98L581.854 142.919L581.611 143.356L583.355 144.325L583.598 143.888L587.087 145.826L586.844 146.263L588.589 147.232L588.832 146.795L592.321 148.734L592.078 149.171L593.822 150.14L594.065 149.703L597.554 151.641L597.311 152.078L598.184 152.563C598.241 152.595 598.287 152.633 598.323 152.675L598.701 152.348C599.021 152.718 599.021 153.282 598.701 153.652L598.323 153.325C598.298 153.354 598.268 153.382 598.233 153.406C598.217 153.417 598.201 153.427 598.184 153.437L597.311 153.922L597.554 154.359L594.065 156.297L593.822 155.86L592.078 156.829L592.321 157.266L588.832 159.205L588.589 158.768L586.844 159.737L587.087 160.174L583.598 162.112L583.355 161.675L581.611 162.644L581.854 163.081L578.365 165.02L578.122 164.583L576.377 165.552L576.62 165.989L573.131 167.927L572.888 167.49L571.144 168.459L571.387 168.896L567.897 170.835L567.655 170.398L565.91 171.367L566.153 171.804L562.664 173.742L562.421 173.305L560.677 174.274L560.919 174.711L557.43 176.65L557.188 176.213L555.443 177.182L555.686 177.619L552.197 179.557L551.954 179.12L550.209 180.089L550.452 180.526L546.963 182.465L546.72 182.028L544.976 182.997L545.219 183.434L541.73 185.372L541.487 184.935L539.742 185.904L539.985 186.342L536.496 188.28L536.253 187.843L534.509 188.812L534.752 189.249L531.263 191.187L531.02 190.75L529.275 191.72L529.518 192.157L526.029 194.095L525.786 193.658L524.042 194.627L524.285 195.064L520.795 197.003L520.553 196.565L518.808 197.535L519.051 197.972L515.562 199.91L515.319 199.473L513.575 200.442L513.817 200.879L510.328 202.818L510.086 202.38L508.341 203.35L508.584 203.787L505.095 205.725L504.852 205.288L503.107 206.257L503.35 206.694L499.861 208.633L499.618 208.196L497.874 209.165L498.117 209.602L494.628 211.54L494.385 211.103L492.64 212.072L492.883 212.509L489.394 214.448L489.151 214.011L487.407 214.98L487.65 215.417L484.161 217.355L483.918 216.918L482.173 217.887L482.416 218.324L478.927 220.263L478.684 219.826L476.94 220.795L477.182 221.232L473.693 223.17L473.451 222.733L471.706 223.702L471.949 224.139L468.46 226.078L468.217 225.641L466.473 226.61L466.715 227.047L463.226 228.985L462.984 228.548L461.239 229.517L461.482 229.955L457.993 231.893L457.75 231.456L456.005 232.425L456.248 232.862L452.759 234.8L452.516 234.363L450.772 235.333L451.015 235.77L447.526 237.708L447.283 237.271L445.538 238.24L445.781 238.677L442.292 240.615L442.049 240.178L440.305 241.148L440.548 241.585L437.059 243.523L436.816 243.086L435.071 244.055L435.314 244.492L431.825 246.431L431.582 245.993L429.838 246.963L430.08 247.4L426.591 249.338L426.349 248.901L424.604 249.87L424.847 250.307L421.358 252.246L421.115 251.809L420.243 252.293C420.092 252.377 419.908 252.377 419.757 252.293L418.885 251.809L418.642 252.246L415.153 250.307L415.396 249.87L413.651 248.901L413.409 249.338L409.92 247.4L410.162 246.963L408.418 245.993L408.175 246.431L404.686 244.492L404.929 244.055L403.184 243.086L402.941 243.523L399.452 241.585L399.695 241.148L397.951 240.178L397.708 240.615L394.219 238.677L394.462 238.24L392.717 237.271L392.474 237.708L388.985 235.77L389.228 235.333L387.484 234.363L387.241 234.8L383.752 232.862L383.995 232.425L382.25 231.456L382.007 231.893L378.518 229.955L378.761 229.517L377.017 228.548L376.774 228.985L373.285 227.047L373.527 226.61L371.783 225.641L371.54 226.078L368.051 224.139L368.294 223.702L366.549 222.733L366.307 223.17L362.818 221.232L363.06 220.795L361.316 219.826L361.073 220.263L357.584 218.324L357.827 217.887L356.082 216.918L355.839 217.355L352.35 215.417L352.593 214.98L350.849 214.011L350.606 214.448L347.117 212.509L347.36 212.072L345.615 211.103L345.372 211.54L341.883 209.602L342.126 209.165L340.382 208.196L340.139 208.633L336.65 206.694L336.893 206.257L335.148 205.288L334.905 205.725L331.416 203.787L331.659 203.35L329.915 202.381L329.672 202.818L326.183 200.879L326.425 200.442L324.681 199.473L324.438 199.91L320.949 197.972L321.192 197.535L319.447 196.565L319.205 197.003L315.716 195.064L315.958 194.627L314.214 193.658L313.971 194.095L310.482 192.157L310.725 191.72L308.98 190.75L308.737 191.187L305.248 189.249L305.491 188.812L303.747 187.843L303.504 188.28L300.015 186.342L300.258 185.905L298.513 184.935L298.27 185.372L294.781 183.434L295.024 182.997L293.28 182.028L293.037 182.465L289.548 180.527L289.791 180.089L288.046 179.12L287.803 179.557L284.314 177.619L284.557 177.182L282.812 176.213L282.57 176.65L279.081 174.711L279.323 174.274L277.579 173.305L277.336 173.742L273.847 171.804L274.09 171.367L272.345 170.398L272.103 170.835L268.614 168.896L268.856 168.459L267.112 167.49L266.869 167.927L263.38 165.989L263.623 165.552L261.878 164.583L261.635 165.02L258.146 163.081L258.389 162.644L256.645 161.675L256.402 162.112L252.913 160.174L253.156 159.737L251.411 158.768L251.168 159.205L247.679 157.266L247.922 156.829L246.178 155.86L245.935 156.297L242.446 154.359L242.689 153.922L241.816 153.437C241.759 153.405 241.713 153.367 241.677 153.325L241.299 153.652C240.979 153.282 240.979 152.718 241.299 152.348L241.677 152.675C241.713 152.633 241.759 152.595 241.816 152.563L242.689 152.078L242.446 151.641L245.935 149.703L246.178 150.14L247.922 149.171L247.679 148.734L251.168 146.795L251.411 147.232L253.156 146.263L252.913 145.826L256.402 143.888L256.645 144.325L258.389 143.356L258.146 142.919L261.635 140.98L261.878 141.417L263.623 140.448L263.38 140.011L266.869 138.073L267.112 138.51L268.856 137.541L268.613 137.104L272.103 135.165L272.345 135.602L274.09 134.633L273.847 134.196L277.336 132.258L277.579 132.695L279.323 131.726L279.081 131.289L282.57 129.35L282.812 129.787L284.557 128.818L284.314 128.381L287.803 126.443L288.046 126.88L289.791 125.911L289.548 125.473L293.037 123.535L293.28 123.972L295.024 123.003L294.781 122.566L298.27 120.628L298.513 121.065L300.258 120.096L300.015 119.658L303.504 117.72L303.747 118.157L305.491 117.188L305.248 116.751L308.737 114.813L308.98 115.25L310.725 114.28L310.482 113.843L313.971 111.905L314.214 112.342L315.958 111.373L315.715 110.936L319.205 108.997L319.447 109.435L321.192 108.465L320.949 108.028L324.438 106.09L324.681 106.527L326.425 105.558L326.183 105.121L329.672 103.182L329.914 103.62L331.659 102.65L331.416 102.213L334.905 100.275L335.148 100.712L336.893 99.7428L336.65 99.3057L340.139 97.3674L340.382 97.8044L342.126 96.8353L341.883 96.3982L345.372 94.4598L345.615 94.8969L347.36 93.9277L347.117 93.4906L350.606 91.5523L350.849 91.9894L352.593 91.0202L352.35 90.5831L355.839 88.6448L356.082 89.0818L357.827 88.1127L357.584 87.6756L361.073 85.7372L361.316 86.1743L363.06 85.2051L362.818 84.768L366.307 82.8297L366.549 83.2668L368.294 82.2976L368.051 81.8605L371.54 79.9222L371.783 80.3592L373.527 79.3901L373.285 78.953L376.774 77.0146L377.016 77.4517L378.761 76.4825L378.518 76.0455L382.007 74.1071L382.25 74.5442L383.995 73.575L383.752 73.1379L387.241 71.1996L387.484 71.6367L389.228 70.6675L388.985 70.2304L392.474 68.292L392.717 68.7291L394.462 67.7599L394.219 67.3229L397.708 65.3845L397.951 65.8216L399.695 64.8524L399.452 64.4153L402.941 62.477L403.184 62.9141L404.929 61.9449L404.686 61.5078L408.175 59.5694L408.418 60.0065L410.162 59.0374L409.92 58.6003L413.409 56.6619L413.651 57.099L415.396 56.1298L415.153 55.6927Z" stroke="#23D3C4" stroke-dasharray="2 4"/>
<path d="M382.5 257L405 244" stroke="#23D3C4" stroke-dasharray="2 4"/>
<path d="M95.0852 55.6464L98.6378 53.7335L98.8748 54.1737L99.7629 53.6955C99.9109 53.6158 100.089 53.6158 100.237 53.6955L101.125 54.1738L101.362 53.7335L104.915 55.6464L104.678 56.0866L106.454 57.0431L106.691 56.6029L110.244 58.5157L110.006 58.956L111.783 59.9124L112.02 59.4722L115.572 61.3851L115.335 61.8253L117.112 62.7818L117.349 62.3415L120.901 64.2544L120.664 64.6947L122.44 65.6511L122.677 65.2109L126.23 67.1238L125.993 67.564L127.769 68.5205L128.006 68.0802L131.559 69.9931L131.322 70.4334L133.098 71.3898L133.335 70.9496L136.887 72.8625L136.65 73.3027L138.427 74.2591L138.664 73.8189L142.216 75.7318L141.979 76.172L143.755 77.1285L143.992 76.6883L147.545 78.6012L147.308 79.0414L149.084 79.9978L149.321 79.5576L152.874 81.4705L152.637 81.9107L154.413 82.8672L154.65 82.4269L158.203 84.3398L157.965 84.7801L159.742 85.7365L159.979 85.2963L163.531 87.2092L163.294 87.6494L165.071 88.6059L165.308 88.1656L168.86 90.0785L168.623 90.5188L170.399 91.4752L170.636 91.035L174.189 92.9479L173.952 93.3881L175.728 94.3445L175.965 93.9043L179.518 95.8172L179.281 96.2574L181.057 97.2139L181.294 96.7737L184.846 98.6866L184.609 99.1268L186.386 100.083L186.623 99.643L190.175 101.556L189.938 101.996L191.714 102.953L191.951 102.512L195.504 104.425L195.267 104.865L197.043 105.822L197.28 105.382L200.833 107.295L200.596 107.735L202.372 108.691L202.609 108.251L206.162 110.164L205.925 110.604L207.701 111.561L207.938 111.12L211.49 113.033L211.253 113.474L213.03 114.43L213.267 113.99L216.819 115.903L216.582 116.343L218.358 117.299L218.595 116.859L222.148 118.772L221.911 119.212L223.687 120.169L223.924 119.728L227.477 121.641L227.24 122.082L228.128 122.56C228.187 122.591 228.233 122.63 228.27 122.671L228.645 122.341C228.973 122.714 228.973 123.286 228.645 123.659L228.27 123.329C228.233 123.37 228.187 123.409 228.128 123.44L227.24 123.918L227.477 124.359L223.924 126.272L223.687 125.831L221.911 126.788L222.148 127.228L218.595 129.141L218.358 128.701L216.582 129.657L216.819 130.097L213.267 132.01L213.03 131.57L211.253 132.526L211.49 132.967L207.938 134.88L207.701 134.439L205.925 135.396L206.162 135.836L202.609 137.749L202.372 137.309L200.596 138.265L200.833 138.705L197.28 140.618L197.043 140.178L195.267 141.135L195.504 141.575L191.952 143.488L191.714 143.047L189.938 144.004L190.175 144.444L186.623 146.357L186.386 145.917L184.609 146.873L184.846 147.313L181.294 149.226L181.057 148.786L179.281 149.743L179.518 150.183L175.965 152.096L175.728 151.655L173.952 152.612L174.189 153.052L170.636 154.965L170.399 154.525L168.623 155.481L168.86 155.921L165.308 157.834L165.071 157.394L163.294 158.351L163.531 158.791L159.979 160.704L159.742 160.263L157.966 161.22L158.203 161.66L154.65 163.573L154.413 163.133L152.637 164.089L152.874 164.529L149.321 166.442L149.084 166.002L147.308 166.959L147.545 167.399L143.992 169.312L143.755 168.871L141.979 169.828L142.216 170.268L138.664 172.181L138.427 171.741L136.65 172.697L136.887 173.138L133.335 175.05L133.098 174.61L131.322 175.567L131.559 176.007L128.006 177.92L127.769 177.48L125.993 178.436L126.23 178.876L122.677 180.789L122.44 180.349L120.664 181.305L120.901 181.746L117.349 183.658L117.112 183.218L115.335 184.175L115.572 184.615L112.02 186.528L111.783 186.088L110.006 187.044L110.244 187.484L106.691 189.397L106.454 188.957L104.678 189.913L104.915 190.354L101.362 192.266L101.125 191.826L100.237 192.304C100.089 192.384 99.9109 192.384 99.7629 192.304L98.8748 191.826L98.6377 192.266L95.0852 190.354L95.3223 189.913L93.546 188.957L93.309 189.397L89.7565 187.484L89.9935 187.044L88.2173 186.088L87.9802 186.528L84.4277 184.615L84.6647 184.175L82.8885 183.218L82.6514 183.658L79.0989 181.746L79.336 181.305L77.5597 180.349L77.3226 180.789L73.7701 178.876L74.0072 178.436L72.2309 177.48L71.9939 177.92L68.4413 176.007L68.6784 175.567L66.9021 174.61L66.6651 175.05L63.1126 173.138L63.3496 172.697L61.5733 171.741L61.3363 172.181L57.7838 170.268L58.0208 169.828L56.2446 168.872L56.0075 169.312L52.455 167.399L52.692 166.959L50.9158 166.002L50.6787 166.442L47.1262 164.53L47.3633 164.089L45.587 163.133L45.35 163.573L41.7974 161.66L42.0345 161.22L40.2582 160.263L40.0212 160.704L36.4687 158.791L36.7057 158.351L34.9295 157.394L34.6924 157.834L31.1399 155.921L31.3769 155.481L29.6007 154.525L29.3636 154.965L25.8111 153.052L26.0482 152.612L24.2719 151.655L24.0348 152.096L20.4823 150.183L20.7194 149.743L18.9431 148.786L18.7061 149.226L15.1535 147.313L15.3906 146.873L13.6143 145.917L13.3773 146.357L9.82476 144.444L10.0618 144.004L8.28555 143.047L8.0485 143.488L4.49598 141.575L4.73303 141.135L2.95677 140.178L2.71972 140.618L-0.832804 138.705L-0.595753 138.265L-2.37201 137.309L-2.60906 137.749L-6.16158 135.836L-5.92453 135.396L-7.70079 134.439L-7.93785 134.88L-11.4904 132.967L-11.2533 132.526L-13.0296 131.57L-13.2666 132.01L-16.8191 130.097L-16.5821 129.657L-18.3584 128.701L-18.5954 129.141L-22.1479 127.228L-21.9109 126.788L-23.6871 125.831L-23.9242 126.272L-27.4767 124.359L-27.2397 123.918L-28.1278 123.44C-28.1866 123.409 -28.2331 123.37 -28.2697 123.329L-28.6452 123.659C-28.9726 123.286 -28.9726 122.714 -28.6452 122.341L-28.2697 122.671C-28.2331 122.63 -28.1866 122.591 -28.1278 122.56L-27.2396 122.082L-27.4767 121.641L-23.9242 119.728L-23.6871 120.169L-21.9109 119.212L-22.1479 118.772L-18.5954 116.859L-18.3584 117.299L-16.5821 116.343L-16.8191 115.903L-13.2666 113.99L-13.0296 114.43L-11.2533 113.474L-11.4904 113.033L-7.93785 111.12L-7.7008 111.561L-5.92454 110.604L-6.16159 110.164L-2.60907 108.251L-2.37201 108.691L-0.595755 107.735L-0.832806 107.295L2.71972 105.382L2.95677 105.822L4.73302 104.865L4.49597 104.425L8.04849 102.512L8.28554 102.953L10.0618 101.996L9.82475 101.556L13.3773 99.643L13.6143 100.083L15.3906 99.1268L15.1535 98.6866L18.7061 96.7737L18.9431 97.2139L20.7194 96.2575L20.4823 95.8172L24.0348 93.9043L24.2719 94.3446L26.0481 93.3881L25.8111 92.9479L29.3636 91.035L29.6007 91.4752L31.3769 90.5188L31.1399 90.0785L34.6924 88.1656L34.9295 88.6059L36.7057 87.6494L36.4687 87.2092L40.0212 85.2963L40.2582 85.7365L42.0345 84.7801L41.7974 84.3398L45.35 82.4269L45.587 82.8672L47.3633 81.9107L47.1262 81.4705L50.6787 79.5576L50.9158 79.9978L52.692 79.0414L52.455 78.6012L56.0075 76.6883L56.2446 77.1285L58.0208 76.172L57.7838 75.7318L61.3363 73.8189L61.5733 74.2592L63.3496 73.3027L63.1126 72.8625L66.6651 70.9496L66.9021 71.3898L68.6784 70.4334L68.4413 69.9931L71.9939 68.0802L72.2309 68.5205L74.0072 67.564L73.7701 67.1238L77.3226 65.2109L77.5597 65.6511L79.336 64.6947L79.0989 64.2544L82.6514 62.3415L82.8885 62.7818L84.6647 61.8253L84.4277 61.3851L87.9802 59.4722L88.2173 59.9124L89.9935 58.956L89.7565 58.5158L93.309 56.6029L93.546 57.0431L95.3223 56.0866L95.0852 55.6464Z" stroke="#23D3C4" stroke-dasharray="2 4"/>
<path d="M45.1531 195.693L48.6421 193.754L48.8849 194.191L49.7572 193.707C49.9082 193.623 50.0918 193.623 50.2428 193.707L51.1151 194.191L51.3579 193.754L54.8469 195.693L54.6041 196.13L56.3486 197.099L56.5914 196.662L60.0805 198.6L59.8376 199.037L61.5822 200.007L61.825 199.569L65.314 201.508L65.0712 201.945L66.8157 202.914L67.0585 202.477L70.5476 204.415L70.3047 204.852L72.0493 205.822L72.2921 205.384L75.7811 207.323L75.5383 207.76L77.2828 208.729L77.5257 208.292L81.0147 210.23L80.7719 210.667L82.5164 211.637L82.7592 211.2L86.2482 213.138L86.0054 213.575L87.7499 214.544L87.9927 214.107L91.4818 216.045L91.239 216.483L92.9835 217.452L93.2263 217.015L96.7153 218.953L96.4725 219.39L98.217 220.359L98.4599 219.922L101.949 221.86L101.706 222.298L103.451 223.267L103.693 222.83L107.182 224.768L106.94 225.205L108.684 226.174L108.927 225.737L112.416 227.676L112.173 228.113L113.918 229.082L114.161 228.645L117.65 230.583L117.407 231.02L119.151 231.989L119.394 231.552L122.883 233.491L122.64 233.928L124.385 234.897L124.628 234.46L128.117 236.398L127.874 236.835L129.618 237.804L129.861 237.367L133.35 239.306L133.107 239.743L134.852 240.712L135.095 240.275L138.584 242.213L138.341 242.65L140.085 243.619L140.328 243.182L143.817 245.121L143.575 245.558L145.319 246.527L145.562 246.09L149.051 248.028L148.808 248.465L150.553 249.435L150.795 248.997L154.284 250.936L154.042 251.373L155.786 252.342L156.029 251.905L159.518 253.843L159.275 254.28L161.02 255.25L161.263 254.813L164.752 256.751L164.509 257.188L166.253 258.157L166.496 257.72L169.985 259.658L169.742 260.095L171.487 261.065L171.73 260.628L175.219 262.566L174.976 263.003L176.72 263.972L176.963 263.535L180.452 265.473L180.209 265.911L181.954 266.88L182.197 266.443L185.686 268.381L185.443 268.818L187.188 269.787L187.43 269.35L190.919 271.289L190.677 271.726L192.421 272.695L192.664 272.258L196.153 274.196L195.91 274.633L197.655 275.602L197.897 275.165L201.386 277.104L201.144 277.541L202.888 278.51L203.131 278.073L206.62 280.011L206.377 280.448L208.122 281.417L208.365 280.98L211.854 282.919L211.611 283.356L213.355 284.325L213.598 283.888L217.087 285.826L216.844 286.263L218.589 287.232L218.832 286.795L222.321 288.734L222.078 289.171L223.822 290.14L224.065 289.703L227.554 291.641L227.311 292.078L228.184 292.563C228.241 292.595 228.287 292.633 228.323 292.675L228.701 292.348C229.021 292.718 229.021 293.282 228.701 293.652L228.323 293.325C228.298 293.354 228.268 293.382 228.233 293.406C228.217 293.417 228.201 293.427 228.184 293.437L227.311 293.922L227.554 294.359L224.065 296.297L223.822 295.86L222.078 296.829L222.321 297.266L218.832 299.205L218.589 298.768L216.844 299.737L217.087 300.174L213.598 302.112L213.355 301.675L211.611 302.644L211.854 303.081L208.365 305.02L208.122 304.583L206.377 305.552L206.62 305.989L203.131 307.927L202.888 307.49L201.144 308.459L201.387 308.896L197.897 310.835L197.655 310.398L195.91 311.367L196.153 311.804L192.664 313.742L192.421 313.305L190.677 314.274L190.919 314.711L187.43 316.65L187.188 316.213L185.443 317.182L185.686 317.619L182.197 319.557L181.954 319.12L180.209 320.089L180.452 320.526L176.963 322.465L176.72 322.028L174.976 322.997L175.219 323.434L171.73 325.372L171.487 324.935L169.742 325.904L169.985 326.342L166.496 328.28L166.253 327.843L164.509 328.812L164.752 329.249L161.263 331.187L161.02 330.75L159.275 331.72L159.518 332.157L156.029 334.095L155.786 333.658L154.042 334.627L154.285 335.064L150.795 337.003L150.553 336.565L148.808 337.535L149.051 337.972L145.562 339.91L145.319 339.473L143.575 340.442L143.817 340.879L140.328 342.818L140.086 342.38L138.341 343.35L138.584 343.787L135.095 345.725L134.852 345.288L133.107 346.257L133.35 346.694L129.861 348.633L129.618 348.196L127.874 349.165L128.117 349.602L124.628 351.54L124.385 351.103L122.64 352.072L122.883 352.509L119.394 354.448L119.151 354.011L117.407 354.98L117.65 355.417L114.161 357.355L113.918 356.918L112.173 357.887L112.416 358.324L108.927 360.263L108.684 359.826L106.94 360.795L107.182 361.232L103.693 363.17L103.451 362.733L101.706 363.702L101.949 364.139L98.4599 366.078L98.2171 365.641L96.4725 366.61L96.7154 367.047L93.2263 368.985L92.9835 368.548L91.239 369.517L91.4818 369.955L87.9928 371.893L87.75 371.456L86.0054 372.425L86.2483 372.862L82.7592 374.8L82.5164 374.363L80.7719 375.333L81.0147 375.77L77.5257 377.708L77.2829 377.271L75.5383 378.24L75.7812 378.677L72.2921 380.615L72.0493 380.178L70.3048 381.148L70.5476 381.585L67.0586 383.523L66.8158 383.086L65.0712 384.055L65.314 384.492L61.825 386.431L61.5822 385.993L59.8377 386.963L60.0805 387.4L56.5915 389.338L56.3486 388.901L54.6041 389.87L54.8469 390.307L51.3579 392.246L51.1151 391.809L50.2428 392.293C50.0918 392.377 49.9082 392.377 49.7572 392.293L48.8849 391.809L48.6421 392.246L45.1531 390.307L45.3959 389.87L43.6514 388.901L43.4086 389.338L39.9195 387.4L40.1624 386.963L38.4178 385.993L38.175 386.431L34.686 384.492L34.9288 384.055L33.1843 383.086L32.9415 383.523L29.4524 381.585L29.6953 381.148L27.9507 380.178L27.7079 380.615L24.2189 378.677L24.4617 378.24L22.7172 377.271L22.4743 377.708L18.9853 375.77L19.2281 375.333L17.4836 374.363L17.2408 374.8L13.7518 372.862L13.9946 372.425L12.2501 371.456L12.0073 371.893L8.5182 369.955L8.76103 369.517L7.01653 368.548L6.7737 368.985L3.28467 367.047L3.52748 366.61L1.78297 365.641L1.54015 366.078L-1.94888 364.139L-1.70607 363.702L-3.45058 362.733L-3.69341 363.17L-7.18244 361.232L-6.93961 360.795L-8.68414 359.826L-8.92696 360.263L-12.416 358.324L-12.1732 357.887L-13.9177 356.918L-14.1605 357.355L-17.6495 355.417L-17.4067 354.98L-19.1513 354.011L-19.3941 354.448L-22.8831 352.509L-22.6403 352.072L-24.3848 351.103L-24.6276 351.54L-28.1167 349.602L-27.8738 349.165L-29.6184 348.196L-29.8612 348.633L-33.3502 346.694L-33.1074 346.257L-34.8519 345.288L-35.0947 345.725L-38.5838 343.787L-38.341 343.35L-40.0855 342.381L-40.3283 342.818L-43.8173 340.879L-43.5745 340.442L-45.319 339.473L-45.5619 339.91L-49.0509 337.972L-48.8081 337.535L-50.5526 336.565L-50.7954 337.003L-54.2845 335.064L-54.0416 334.627L-55.7862 333.658L-56.029 334.095L-59.518 332.157L-59.2752 331.72L-61.0197 330.75L-61.2625 331.187L-64.7516 329.249L-64.5088 328.812L-66.2533 327.843L-66.4961 328.28L-69.9851 326.342L-69.7423 325.905L-71.4868 324.935L-71.7297 325.372L-75.2187 323.434L-74.9759 322.997L-76.7204 322.028L-76.9632 322.465L-80.4523 320.527L-80.2094 320.089L-81.954 319.12L-82.1968 319.557L-85.6858 317.619L-85.443 317.182L-87.1875 316.213L-87.4303 316.65L-90.9194 314.711L-90.6765 314.274L-92.4211 313.305L-92.6639 313.742L-96.1529 311.804L-95.9101 311.367L-97.6546 310.398L-97.8974 310.835L-101.386 308.896L-101.144 308.459L-102.888 307.49L-103.131 307.927L-106.62 305.989L-106.377 305.552L-108.122 304.583L-108.365 305.02L-111.854 303.081L-111.611 302.644L-113.355 301.675L-113.598 302.112L-117.087 300.174L-116.844 299.737L-118.589 298.768L-118.832 299.205L-122.321 297.266L-122.078 296.829L-123.822 295.86L-124.065 296.297L-127.554 294.359L-127.311 293.922L-128.184 293.437C-128.241 293.405 -128.287 293.367 -128.323 293.325L-128.701 293.652C-129.021 293.282 -129.021 292.718 -128.701 292.348L-128.323 292.675C-128.287 292.633 -128.241 292.595 -128.184 292.563L-127.311 292.078L-127.554 291.641L-124.065 289.703L-123.822 290.14L-122.078 289.171L-122.321 288.734L-118.832 286.795L-118.589 287.232L-116.844 286.263L-117.087 285.826L-113.598 283.888L-113.355 284.325L-111.611 283.356L-111.854 282.919L-108.365 280.98L-108.122 281.417L-106.377 280.448L-106.62 280.011L-103.131 278.073L-102.888 278.51L-101.144 277.541L-101.387 277.104L-97.8975 275.165L-97.6546 275.602L-95.9101 274.633L-96.153 274.196L-92.6639 272.258L-92.4211 272.695L-90.6766 271.726L-90.9194 271.289L-87.4304 269.35L-87.1875 269.787L-85.443 268.818L-85.6858 268.381L-82.1968 266.443L-81.954 266.88L-80.2095 265.911L-80.4523 265.473L-76.9633 263.535L-76.7204 263.972L-74.9759 263.003L-75.2187 262.566L-71.7297 260.628L-71.4869 261.065L-69.7424 260.096L-69.9852 259.658L-66.4961 257.72L-66.2533 258.157L-64.5088 257.188L-64.7516 256.751L-61.2626 254.813L-61.0198 255.25L-59.2753 254.28L-59.5181 253.843L-56.029 251.905L-55.7862 252.342L-54.0417 251.373L-54.2845 250.936L-50.7955 248.997L-50.5527 249.435L-48.8081 248.465L-49.051 248.028L-45.5619 246.09L-45.3191 246.527L-43.5746 245.558L-43.8174 245.121L-40.3284 243.182L-40.0855 243.62L-38.341 242.65L-38.5838 242.213L-35.0948 240.275L-34.852 240.712L-33.1075 239.743L-33.3503 239.306L-29.8612 237.367L-29.6184 237.804L-27.8739 236.835L-28.1167 236.398L-24.6277 234.46L-24.3849 234.897L-22.6403 233.928L-22.8832 233.491L-19.3941 231.552L-19.1513 231.989L-17.4068 231.02L-17.6496 230.583L-14.1606 228.645L-13.9177 229.082L-12.1732 228.113L-12.416 227.676L-8.92701 225.737L-8.68419 226.174L-6.93967 225.205L-7.18249 224.768L-3.69345 222.83L-3.45063 223.267L-1.70612 222.298L-1.94893 221.861L1.5401 219.922L1.78293 220.359L3.52744 219.39L3.28462 218.953L6.77367 217.015L7.01648 217.452L8.761 216.483L8.51817 216.045L12.0072 214.107L12.25 214.544L13.9946 213.575L13.7517 213.138L17.2408 211.2L17.4836 211.637L19.2281 210.667L18.9853 210.23L22.4743 208.292L22.7171 208.729L24.4617 207.76L24.2188 207.323L27.7079 205.385L27.9507 205.822L29.6952 204.852L29.4524 204.415L32.9414 202.477L33.1842 202.914L34.9288 201.945L34.686 201.508L38.175 199.569L38.4178 200.007L40.1623 199.037L39.9195 198.6L43.4085 196.662L43.6514 197.099L45.3959 196.13L45.1531 195.693Z" stroke="#23D3C4" stroke-dasharray="2 4"/>
<path d="M305.103 -74.2251L308.626 -76.2215L308.873 -75.7865L309.753 -76.2856C309.906 -76.3723 310.094 -76.3723 310.247 -76.2856L311.127 -75.7865L311.374 -76.2215L314.897 -74.2251L314.65 -73.7901L316.412 -72.7919L316.658 -73.2269L320.182 -71.2304L319.935 -70.7954L321.697 -69.7972L321.943 -70.2322L325.466 -68.2358L325.22 -67.8008L326.981 -66.8025L327.228 -67.2375L330.751 -65.2411L330.505 -64.8061L332.266 -63.8079L332.513 -64.2429L336.036 -62.2464L335.789 -61.8114L337.551 -60.8132L337.797 -61.2482L341.32 -59.2518L341.074 -58.8168L342.835 -57.8185L343.082 -58.2535L346.605 -56.2571L346.359 -55.8221L348.12 -54.8239L348.367 -55.2589L351.89 -53.2624L351.643 -52.8274L353.405 -51.8292L353.651 -52.2642L357.175 -50.2678L356.928 -49.8328L358.69 -48.8345L358.936 -49.2696L362.459 -47.2731L362.213 -46.8381L363.974 -45.8399L364.221 -46.2749L367.744 -44.2784L367.497 -43.8434L369.259 -42.8452L369.505 -43.2802L373.029 -41.2838L372.782 -40.8488L374.544 -39.8505L374.79 -40.2855L378.313 -38.2891L378.067 -37.8541L379.828 -36.8559L380.075 -37.2909L383.598 -35.2944L383.352 -34.8594L385.113 -33.8612L385.36 -34.2962L388.883 -32.2998L388.636 -31.8648L390.398 -30.8665L390.644 -31.3016L394.167 -29.3051L393.921 -28.8701L395.683 -27.8719L395.929 -28.3069L399.452 -26.3104L399.206 -25.8754L400.967 -24.8772L401.214 -25.3122L404.737 -23.3158L404.49 -22.8808L406.252 -21.8825L406.498 -22.3176L410.022 -20.3211L409.775 -19.8861L411.537 -18.8879L411.783 -19.3229L415.306 -17.3265L415.06 -16.8914L416.821 -15.8932L417.068 -16.3282L420.591 -14.3318L420.344 -13.8968L422.106 -12.8986L422.353 -13.3336L425.876 -11.3371L425.629 -10.9021L427.391 -9.90389L427.637 -10.3389L431.16 -8.34246L430.914 -7.90745L432.675 -6.90923L432.922 -7.34424L436.445 -5.34779L436.199 -4.91278L437.96 -3.91456L438.207 -4.34956L441.73 -2.35313L441.483 -1.91812L443.245 -0.919899L443.491 -1.3549L447.014 0.641541L446.768 1.07655L448.53 2.07477L448.776 1.63976L452.299 3.6362L452.053 4.07121L453.814 5.06944L454.061 4.63442L457.584 6.63087L457.337 7.06587L458.218 7.56498C458.275 7.59702 458.32 7.6353 458.355 7.67677L458.735 7.35224C459.05 7.72143 459.05 8.27858 458.735 8.64777L458.355 8.32323C458.32 8.3647 458.275 8.40297 458.218 8.43501L457.337 8.9341L457.584 9.3691L454.061 11.3656L453.814 10.9305L452.053 11.9288L452.299 12.3638L448.776 14.3602L448.53 13.9252L446.768 14.9234L447.015 15.3584L443.491 17.3549L443.245 16.9199L441.483 17.9181L441.73 18.3531L438.207 20.3495L437.96 19.9145L436.199 20.9128L436.445 21.3478L432.922 23.3442L432.675 22.9092L430.914 23.9074L431.16 24.3424L427.637 26.3389L427.391 25.9039L425.629 26.9021L425.876 27.3371L422.353 29.3335L422.106 28.8985L420.344 29.8968L420.591 30.3318L417.068 32.3282L416.821 31.8932L415.06 32.8914L415.306 33.3264L411.783 35.3229L411.537 34.8879L409.775 35.8861L410.022 36.3211L406.498 38.3176L406.252 37.8825L404.49 38.8808L404.737 39.3158L401.214 41.3122L400.967 40.8772L399.206 41.8754L399.452 42.3104L395.929 44.3069L395.683 43.8719L393.921 44.8701L394.167 45.3051L390.644 47.3015L390.398 46.8665L388.636 47.8648L388.883 48.2998L385.36 50.2962L385.113 49.8612L383.352 50.8594L383.598 51.2944L380.075 53.2909L379.828 52.8559L378.067 53.8541L378.313 54.2891L374.79 56.2855L374.544 55.8505L372.782 56.8488L373.029 57.2838L369.506 59.2802L369.259 58.8452L367.497 59.8434L367.744 60.2784L364.221 62.2749L363.974 61.8399L362.213 62.8381L362.459 63.2731L358.936 65.2695L358.69 64.8345L356.928 65.8327L357.175 66.2678L353.651 68.2642L353.405 67.8292L351.643 68.8274L351.89 69.2624L348.367 71.2589L348.12 70.8239L346.359 71.8221L346.605 72.2571L343.082 74.2535L342.835 73.8185L341.074 74.8167L341.32 75.2518L337.797 77.2482L337.551 76.8132L335.789 77.8114L336.036 78.2464L332.513 80.2429L332.266 79.8078L330.505 80.8061L330.751 81.2411L327.228 83.2375L326.981 82.8025L325.22 83.8007L325.466 84.2357L321.943 86.2322L321.697 85.7972L319.935 86.7954L320.182 87.2304L316.658 89.2269L316.412 88.7918L314.65 89.7901L314.897 90.2251L311.374 92.2215L311.127 91.7865L310.247 92.2856C310.094 92.3723 309.906 92.3723 309.753 92.2856L308.873 91.7865L308.626 92.2215L305.103 90.2251L305.35 89.7901L303.588 88.7919L303.342 89.2269L299.818 87.2304L300.065 86.7954L298.303 85.7972L298.057 86.2322L294.534 84.2358L294.78 83.8008L293.019 82.8025L292.772 83.2375L289.249 81.2411L289.495 80.8061L287.734 79.8079L287.487 80.2429L283.964 78.2464L284.211 77.8114L282.449 76.8132L282.203 77.2482L278.68 75.2518L278.926 74.8168L277.165 73.8185L276.918 74.2535L273.395 72.2571L273.641 71.8221L271.88 70.8239L271.633 71.2589L268.11 69.2624L268.357 68.8274L266.595 67.8292L266.349 68.2642L262.825 66.2678L263.072 65.8328L261.31 64.8345L261.064 65.2695L257.541 63.2731L257.787 62.8381L256.026 61.8399L255.779 62.2749L252.256 60.2784L252.503 59.8434L250.741 58.8452L250.495 59.2802L246.971 57.2838L247.218 56.8488L245.456 55.8505L245.21 56.2856L241.687 54.2891L241.933 53.8541L240.172 52.8559L239.925 53.2909L236.402 51.2944L236.648 50.8594L234.887 49.8612L234.64 50.2962L231.117 48.2998L231.364 47.8648L229.602 46.8665L229.356 47.3016L225.833 45.3051L226.079 44.8701L224.317 43.8719L224.071 44.3069L220.548 42.3104L220.794 41.8754L219.033 40.8772L218.786 41.3122L215.263 39.3158L215.51 38.8808L213.748 37.8825L213.502 38.3176L209.978 36.3211L210.225 35.8861L208.463 34.8879L208.217 35.3229L204.694 33.3265L204.94 32.8914L203.179 31.8932L202.932 32.3282L199.409 30.3318L199.656 29.8968L197.894 28.8986L197.647 29.3336L194.124 27.3371L194.371 26.9021L192.609 25.9039L192.363 26.3389L188.84 24.3425L189.086 23.9074L187.325 22.9092L187.078 23.3442L183.555 21.3478L183.801 20.9128L182.04 19.9146L181.793 20.3496L178.27 18.3531L178.517 17.9181L176.755 16.9199L176.509 17.3549L172.986 15.3585L173.232 14.9235L171.47 13.9252L171.224 14.3602L167.701 12.3638L167.947 11.9288L166.186 10.9306L165.939 11.3656L162.416 9.36913L162.663 8.93413L161.782 8.43501C161.725 8.40297 161.68 8.3647 161.645 8.32322L161.265 8.64777C160.95 8.27858 160.95 7.72144 161.265 7.35225L161.645 7.67678C161.68 7.63531 161.725 7.59703 161.782 7.56499L162.663 7.06591L162.416 6.6309L165.939 4.63445L166.186 5.06947L167.947 4.07124L167.701 3.63623L171.224 1.63979L171.47 2.0748L173.232 1.07658L172.985 0.641563L176.509 -1.35488L176.755 -0.919868L178.517 -1.91809L178.27 -2.3531L181.793 -4.34955L182.04 -3.91454L183.801 -4.91275L183.555 -5.34776L187.078 -7.34422L187.325 -6.9092L189.086 -7.90742L188.84 -8.34243L192.363 -10.3389L192.609 -9.90387L194.371 -10.9021L194.124 -11.3371L197.647 -13.3335L197.894 -12.8985L199.656 -13.8968L199.409 -14.3318L202.932 -16.3282L203.179 -15.8932L204.94 -16.8914L204.694 -17.3264L208.217 -19.3229L208.463 -18.8879L210.225 -19.8861L209.978 -20.3211L213.502 -22.3175L213.748 -21.8825L215.51 -22.8808L215.263 -23.3158L218.786 -25.3122L219.033 -24.8772L220.794 -25.8754L220.548 -26.3104L224.071 -28.3069L224.317 -27.8719L226.079 -28.8701L225.833 -29.3051L229.356 -31.3015L229.602 -30.8665L231.364 -31.8648L231.117 -32.2998L234.64 -34.2962L234.887 -33.8612L236.648 -34.8594L236.402 -35.2944L239.925 -37.2909L240.172 -36.8559L241.933 -37.8541L241.687 -38.2891L245.21 -40.2855L245.456 -39.8505L247.218 -40.8488L246.971 -41.2838L250.494 -43.2802L250.741 -42.8452L252.503 -43.8434L252.256 -44.2784L255.779 -46.2749L256.026 -45.8399L257.787 -46.8381L257.541 -47.2731L261.064 -49.2695L261.31 -48.8345L263.072 -49.8327L262.825 -50.2678L266.349 -52.2642L266.595 -51.8292L268.357 -52.8274L268.11 -53.2624L271.633 -55.2589L271.88 -54.8239L273.641 -55.8221L273.395 -56.2571L276.918 -58.2535L277.164 -57.8185L278.926 -58.8167L278.68 -59.2518L282.203 -61.2482L282.449 -60.8132L284.211 -61.8114L283.964 -62.2464L287.487 -64.2429L287.734 -63.8078L289.495 -64.8061L289.249 -65.2411L292.772 -67.2375L293.019 -66.8025L294.78 -67.8007L294.534 -68.2357L298.057 -70.2322L298.303 -69.7972L300.065 -70.7954L299.818 -71.2304L303.342 -73.2269L303.588 -72.7918L305.35 -73.7901L305.103 -74.2251Z" stroke="#23D3C4" stroke-dasharray="2 4"/>
<path d="M148.5 79L220 41" stroke="#23D3C4" stroke-dasharray="2 4"/>
<circle cx="100" cy="111" r="16.5" fill="white" stroke="#23D3C4"/>
<path fill-rule="evenodd" clip-rule="evenodd" d="M107.07 109.04C107.384 106.939 105.784 105.809 103.596 105.055L104.305 102.209L102.572 101.777L101.881 104.548C101.426 104.435 100.958 104.328 100.494 104.222L101.189 101.432L99.4576 101L98.7474 103.846C98.3704 103.76 98.0002 103.675 97.641 103.586L97.6429 103.577L95.2533 102.98L94.7924 104.831C94.7924 104.831 96.078 105.125 96.0508 105.144C96.7526 105.319 96.88 105.783 96.8582 106.151L96.0498 109.394C96.0982 109.407 96.1609 109.424 96.23 109.452L96.0474 109.407L94.9138 113.95C94.8279 114.163 94.6102 114.483 94.1197 114.361C94.137 114.386 92.8602 114.047 92.8602 114.047L92 116.031L94.2554 116.593C94.51 116.657 94.7615 116.722 95.0103 116.787L95.0103 116.787L95.0106 116.787C95.1716 116.829 95.3314 116.871 95.4902 116.912L94.7731 119.791L96.5039 120.223L97.2146 117.375C97.6869 117.503 98.1458 117.621 98.5949 117.733L97.8872 120.568L99.62 121L100.337 118.126C103.292 118.685 105.514 118.46 106.448 115.788C107.202 113.636 106.411 112.395 104.857 111.585C105.989 111.323 106.842 110.578 107.069 109.04H107.07ZM103.111 114.592C102.619 116.567 99.5269 115.749 98.1134 115.376L98.1134 115.376C97.9869 115.342 97.8738 115.312 97.7772 115.288L98.7287 111.474C98.8467 111.504 98.991 111.536 99.1543 111.573C100.617 111.901 103.613 112.573 103.111 114.592H103.111ZM99.4487 109.802C100.628 110.117 103.199 110.803 103.647 109.009C104.104 107.174 101.605 106.62 100.384 106.35C100.247 106.32 100.125 106.293 100.027 106.268L99.1639 109.728C99.2455 109.748 99.3413 109.774 99.4487 109.802Z" fill="#23D3C4"/>
<circle cx="310" cy="31" r="13.5" fill="white" stroke="#23D3C4"/>
<circle cx="307" cy="28" r="2" fill="#23D3C4"/>
<circle cx="313" cy="34" r="2" fill="#23D3C4"/>
<path d="M314 27L306 35" stroke="#23D3C4"/>
<circle cx="425" cy="145" r="19.5" fill="white" stroke="#23D3C4"/>
<path d="M434.074 140.375L432.594 137.473C432.423 137.137 432.161 136.855 431.84 136.658C431.518 136.461 431.148 136.356 430.77 136.356H419.23C418.853 136.356 418.483 136.461 418.161 136.658C417.839 136.855 417.578 137.137 417.407 137.473L415.926 140.375C415.105 142.258 416.321 144.484 418.369 144.651C418.931 144.697 419.496 144.594 420.004 144.351C420.513 144.108 420.948 143.734 421.265 143.267C421.326 143.177 421.408 143.103 421.504 143.052C421.6 143.001 421.707 142.974 421.816 142.974C421.924 142.974 422.031 143.001 422.127 143.052C422.223 143.103 422.305 143.177 422.366 143.267C422.939 144.109 423.905 144.661 425 144.661C426.096 144.661 427.061 144.109 427.635 143.267C427.695 143.177 427.777 143.103 427.873 143.052C427.969 143.001 428.076 142.974 428.185 142.974C428.294 142.974 428.401 143.001 428.497 143.052C428.593 143.103 428.675 143.177 428.736 143.267C429.052 143.734 429.487 144.108 429.996 144.351C430.505 144.594 431.069 144.697 431.631 144.651C433.68 144.484 434.896 142.258 434.074 140.375ZM431.927 145.96C431.742 145.983 431.556 145.994 431.37 145.994C430.37 145.995 429.397 145.663 428.606 145.051C428.486 144.957 428.338 144.906 428.185 144.906C428.032 144.906 427.884 144.957 427.764 145.051C426.973 145.663 426.001 145.995 425 145.994C424 145.995 423.028 145.663 422.236 145.051C422.116 144.957 421.968 144.906 421.815 144.906C421.663 144.906 421.514 144.957 421.394 145.051C420.453 145.779 419.261 146.106 418.08 145.96C417.986 145.949 417.891 145.957 417.801 145.985C417.711 146.012 417.628 146.059 417.558 146.121C417.487 146.184 417.431 146.26 417.392 146.346C417.353 146.432 417.333 146.525 417.334 146.619V152.292C417.334 153.038 417.923 153.643 418.649 153.643H431.352C432.078 153.643 432.667 153.038 432.667 152.292V146.621C432.667 146.224 432.321 145.909 431.927 145.96ZM429.161 150.993H420.84C420.473 150.993 420.173 150.693 420.173 150.326C420.173 149.96 420.473 149.66 420.84 149.66H429.161C429.527 149.66 429.827 149.96 429.827 150.326C429.827 150.693 429.527 150.993 429.161 150.993Z" fill="#23D3C4"/>
<path d="M259.757 110.707C259.908 110.623 260.092 110.623 260.243 110.707L348.184 159.563C348.527 159.753 348.527 160.247 348.184 160.437L260.243 209.293C260.092 209.377 259.908 209.377 259.757 209.293L171.816 160.437C171.473 160.247 171.473 159.753 171.816 159.563L259.757 110.707Z" fill="white" stroke="#23D3C4"/>
<path d="M259.757 100.707C259.908 100.623 260.092 100.623 260.243 100.707L348.184 149.563C348.527 149.753 348.527 150.247 348.184 150.437L260.243 199.293C260.092 199.377 259.908 199.377 259.757 199.293L171.816 150.437C171.473 150.247 171.473 149.753 171.816 149.563L259.757 100.707Z" fill="white" stroke="#23D3C4"/>
<path d="M259.757 90.7069C259.908 90.623 260.092 90.623 260.243 90.7069L348.184 139.563C348.527 139.753 348.527 140.247 348.184 140.437L260.243 189.293C260.092 189.377 259.908 189.377 259.757 189.293L171.816 140.437C171.473 140.247 171.473 139.753 171.816 139.563L259.757 90.7069Z" fill="white" stroke="#23D3C4"/>
<path d="M254.973 102.754L258.61 100.762L258.851 101.2L259.76 100.702L259.519 100.263L259.76 100.702C259.909 100.62 260.091 100.62 260.24 100.702L260.48 100.264L260.24 100.702L261.149 101.2L261.39 100.762L265.027 102.754L264.786 103.193L266.605 104.189L266.845 103.751L270.482 105.744L270.242 106.182L272.06 107.178L272.3 106.74L275.937 108.733L275.697 109.171L277.515 110.168L277.756 109.729L281.393 111.722L281.152 112.16L282.971 113.157L283.211 112.718L286.848 114.711L286.608 115.15L288.426 116.146L288.666 115.708L292.303 117.7L292.063 118.139L293.881 119.135L294.122 118.697L297.758 120.69L297.518 121.128L299.337 122.124L299.577 121.686L303.214 123.679L302.974 124.117L304.792 125.114L305.032 124.675L308.669 126.668L308.429 127.106L310.247 128.103L310.488 127.664L314.124 129.657L313.884 130.096L315.703 131.092L315.943 130.654L319.58 132.646L319.339 133.085L321.158 134.081L321.398 133.643L325.035 135.636L324.795 136.074L326.613 137.071L326.853 136.632L330.49 138.625L330.25 139.063L331.159 139.562C331.217 139.593 331.263 139.632 331.299 139.673L331.677 139.345C332 139.716 332 140.284 331.677 140.655L331.299 140.327C331.263 140.368 331.217 140.407 331.159 140.438L330.25 140.937L330.49 141.375L326.853 143.368L326.613 142.929L324.795 143.926L325.035 144.364L321.398 146.357L321.158 145.919L319.339 146.915L319.58 147.354L315.943 149.346L315.703 148.908L313.884 149.904L314.124 150.343L310.488 152.336L310.247 151.897L308.429 152.894L308.669 153.332L305.032 155.325L304.792 154.886L302.973 155.883L303.214 156.321L299.577 158.314L299.337 157.876L297.518 158.872L297.758 159.31L294.122 161.303L293.881 160.865L292.063 161.861L292.303 162.3L288.666 164.292L288.426 163.854L286.608 164.85L286.848 165.289L283.211 167.282L282.971 166.843L281.152 167.84L281.393 168.278L277.756 170.271L277.515 169.832L275.697 170.829L275.937 171.267L272.3 173.26L272.06 172.822L270.242 173.818L270.482 174.256L266.845 176.249L266.605 175.811L264.786 176.807L265.027 177.246L261.39 179.238L261.149 178.8L260.24 179.298C260.091 179.38 259.909 179.38 259.76 179.298L258.851 178.8L258.61 179.238L254.973 177.246L255.214 176.807L253.395 175.811L253.155 176.249L249.518 174.256L249.758 173.818L247.94 172.822L247.7 173.26L244.063 171.267L244.303 170.829L242.485 169.832L242.244 170.271L238.607 168.278L238.848 167.84L237.029 166.843L236.789 167.282L233.152 165.289L233.392 164.85L231.574 163.854L231.334 164.292L227.697 162.3L227.937 161.861L226.119 160.865L225.878 161.303L222.242 159.31L222.482 158.872L220.663 157.876L220.423 158.314L216.786 156.321L217.026 155.883L215.208 154.886L214.968 155.325L211.331 153.332L211.571 152.894L209.753 151.897L209.512 152.336L205.876 150.343L206.116 149.904L204.297 148.908L204.057 149.346L200.42 147.354L200.661 146.915L198.842 145.919L198.602 146.357L194.965 144.364L195.205 143.926L193.387 142.929L193.147 143.368L189.51 141.375L189.75 140.937L188.841 140.438C188.783 140.407 188.737 140.368 188.701 140.327L188.323 140.655C188 140.284 188 139.716 188.323 139.345L188.701 139.673C188.737 139.632 188.783 139.593 188.841 139.562L189.75 139.063L189.51 138.625L193.147 136.632L193.387 137.071L195.205 136.074L194.965 135.636L198.602 133.643L198.842 134.081L200.661 133.085L200.42 132.646L204.057 130.654L204.297 131.092L206.116 130.096L205.876 129.657L209.512 127.664L209.753 128.103L211.571 127.106L211.331 126.668L214.968 124.675L215.208 125.114L217.027 124.117L216.786 123.679L220.423 121.686L220.663 122.124L222.482 121.128L222.242 120.69L225.878 118.697L226.119 119.135L227.937 118.139L227.697 117.7L231.334 115.708L231.574 116.146L233.392 115.15L233.152 114.711L236.789 112.718L237.029 113.157L238.848 112.16L238.607 111.722L242.244 109.729L242.485 110.168L244.303 109.171L244.063 108.733L247.7 106.74L247.94 107.178L249.758 106.182L249.518 105.744L253.155 103.751L253.395 104.189L255.214 103.193L254.973 102.754Z" stroke="#23D3C4" stroke-dasharray="2 4"/>
<path d="M274.5 140C274.5 140.471 274.214 141 273.512 141.554C272.815 142.102 271.777 142.618 270.448 143.061C267.797 143.945 264.103 144.5 260 144.5C255.897 144.5 252.203 143.945 249.552 143.061C248.223 142.618 247.185 142.102 246.488 141.554C245.786 141 245.5 140.471 245.5 140C245.5 139.529 245.786 139 246.488 138.446C247.185 137.898 248.223 137.382 249.552 136.939C252.203 136.055 255.897 135.5 260 135.5C264.103 135.5 267.797 136.055 270.448 136.939C271.777 137.382 272.815 137.898 273.512 138.446C274.214 139 274.5 139.529 274.5 140Z" fill="white" stroke="black"/>
<path d="M260.5 139.5V121.5" stroke="#23D3C4" stroke-width="1.5" stroke-linecap="round"/>
<path d="M280.278 115.249C276.822 119.368 271.805 121.554 267.608 122.708C265.515 123.283 263.641 123.597 262.29 123.768C261.615 123.853 261.072 123.902 260.698 123.93C260.659 123.932 260.622 123.935 260.586 123.938C260.583 123.902 260.579 123.865 260.575 123.826C260.537 123.453 260.491 122.91 260.458 122.23C260.391 120.871 260.375 118.97 260.578 116.809C260.985 112.475 262.267 107.155 265.724 103.036C269.18 98.9166 274.197 96.7303 278.394 95.577C280.487 95.0019 282.361 94.6875 283.712 94.5171C284.387 94.432 284.93 94.3829 285.303 94.3551C285.343 94.3522 285.38 94.3495 285.416 94.347C285.419 94.3824 285.423 94.4197 285.427 94.4589C285.465 94.8312 285.511 95.3747 285.544 96.0543C285.611 97.4141 285.627 99.315 285.424 101.476C285.017 105.81 283.735 111.13 280.278 115.249Z" fill="#23D3C4" stroke="#23D3C4"/>
<path d="M270 109.5C262.9 117.962 260.145 124.463 260.145 124.463C260.145 124.463 260.401 114.962 267.501 106.5C274.601 98.039 285.857 93.8216 285.857 93.8216C285.857 93.8216 277.1 101.039 270 109.5Z" fill="white" stroke="#23D3C4" stroke-linejoin="round"/>
<path d="M254.277 109.036C257.734 113.155 259.015 118.475 259.422 122.808C259.625 124.969 259.609 126.87 259.543 128.23C259.509 128.91 259.463 129.453 259.426 129.825C259.422 129.865 259.418 129.902 259.414 129.937C259.379 129.935 259.341 129.932 259.302 129.929C258.929 129.901 258.386 129.852 257.711 129.767C256.36 129.597 254.485 129.282 252.392 128.707C248.195 127.554 243.179 125.368 239.722 121.249C236.266 117.129 234.984 111.809 234.577 107.476C234.374 105.315 234.39 103.414 234.457 102.054C234.49 101.374 234.536 100.831 234.573 100.459C234.577 100.419 234.581 100.382 234.585 100.347C234.62 100.349 234.658 100.352 234.697 100.355C235.07 100.383 235.613 100.432 236.288 100.517C237.639 100.687 239.514 101.002 241.607 101.577C245.804 102.73 250.821 104.916 254.277 109.036Z" fill="#23D3C4" stroke="#23D3C4"/>
<path d="M252 111C259.1 119.462 259.855 130.464 259.855 130.464C259.855 130.464 257.1 121.962 250 113.5C242.9 105.039 234.144 99.8218 234.144 99.8218C234.144 99.8218 244.9 102.539 252 111Z" fill="white" stroke="#23D3C4" stroke-linejoin="round"/>
<path d="M469.5 225L520 256" stroke="#23D3C4" stroke-dasharray="2 4"/>
</g>
<defs>
<clipPath id="clip0_192_788">
<rect width="520" height="300" fill="white"/>
</clipPath>
</defs>
</svg>
